<svg width="18" height="14" viewBox="0 0 18 14" fill="none" xmlns="http://www.w3.org/2000/svg">
<path d="M1 0H17C17.5523 0 18 0.447715 18 1V3.48376V12.935C18 13.4873 17.5523 13.935 17 13.935H1C0.447716 13.935 0 13.4873 0 12.935V3.48376V0.999999C0 0.447714 0.447715 0 1 0Z" fill="#5B6FA3"/>
<path d="M18 4.9768L9 8.95824L0 4.9768V1.99536C0 1.44308 0.447716 0.995361 1 0.995361H17C17.5523 0.995361 18 1.44308 18 1.99536V4.9768Z" fill="white"/>
<path d="M18 3.98144L9 7.96288L0 3.98144V1C0 0.447715 0.447716 0 1 0H17C17.5523 0 18 0.447715 18 1V3.98144Z" fill="#5B6FA3"/>
</svg>
