<svg width="30" height="30" viewBox="0 0 30 30" fill="none" xmlns="http://www.w3.org/2000/svg">
<circle cx="15" cy="15" r="15" fill="#5B6FA3"/>
<path d="M22.6998 19.3987L20.5381 17.2424C20.0577 16.7632 19.3371 16.7632 18.8568 17.2424L16.9353 19.1591C14.3733 17.8813 12.2116 15.725 10.9306 13.1694L12.8521 11.2527C13.3325 10.7735 13.3325 10.0547 12.8521 9.57557L10.6103 7.41928C10.13 6.86024 9.4094 6.86024 8.92902 7.41928L8.60877 7.73873C7.4879 8.85681 6.92746 10.3742 7.00753 11.8916C7.00753 11.8916 7.00753 12.1312 7.08759 12.5305C7.16765 12.7701 7.16765 13.0895 7.24771 13.3291C7.64803 14.6069 8.60877 16.7632 11.0106 19.0792C13.4926 21.555 15.5742 22.4335 16.9353 22.8328H17.0153C17.1755 22.9126 17.3356 22.9126 17.4156 22.9126H17.4957C17.9761 22.9925 18.2163 22.9925 18.2163 22.9925C19.7375 23.0724 21.2586 22.5133 22.3795 21.3952L22.6998 21.0758C23.1001 20.5966 23.1001 19.8779 22.6998 19.3987Z" fill="white"/>
</svg>
