<svg width="78" height="78" viewBox="0 0 78 78" fill="none" xmlns="http://www.w3.org/2000/svg">
<circle cx="39" cy="39" r="39" fill="#7A8CB3"/>
<path d="M59.0196 50.4367L53.3992 44.8304C52.1502 43.5845 50.2768 43.5845 49.0278 44.8304L44.0319 49.8138C37.3707 46.4915 31.7503 40.8852 28.4197 34.2406L33.4156 29.2572C34.6646 28.0113 34.6646 26.1425 33.4156 24.8967L27.5871 19.2903C26.3381 17.8368 24.4646 17.8368 23.2157 19.2903L22.383 20.1209C19.4687 23.0279 18.0116 26.9731 18.2198 30.9183C18.2198 30.9183 18.2198 31.5413 18.4279 32.5795C18.6361 33.2024 18.6361 34.033 18.8442 34.6559C19.8851 37.9782 22.383 43.5845 28.6279 49.6062C35.0809 56.0431 40.4931 58.3272 44.0319 59.3654H44.2401C44.6564 59.573 45.0727 59.573 45.2809 59.573H45.489C46.738 59.7807 47.3625 59.7807 47.3625 59.7807C51.3176 59.9883 55.2727 58.5348 58.1869 55.6278L59.0196 54.7972C60.0604 53.5514 60.0604 51.6826 59.0196 50.4367Z" fill="#8899BD"/>
</svg>
