<svg width="73" height="31" viewBox="0 0 73 31" fill="none" xmlns="http://www.w3.org/2000/svg">
<path d="M31.1496 15.7371C31.1496 13.8991 30.7874 12.1454 30.1539 10.518C29.985 15.8714 24.3148 20.0177 20.9854 22.7616H29.3197C30.4852 20.6658 31.1496 18.2768 31.1496 15.7371ZM25.1244 3.94822C22.4867 1.97584 19.1783 0.791323 15.5739 0.791323C6.97276 0.791323 0 7.4827 0 15.7371C0 23.9915 6.97276 30.6829 15.5739 30.6829C19.5141 30.6829 23.1012 29.2696 25.8424 26.955H14.5664L14.5328 23.7764C21.3267 18.1088 25.492 14.2757 25.492 10.5733C25.492 9.1973 24.9456 7.46092 22.4885 7.46092C20.5425 7.46092 18.6645 8.54286 19.0049 13.0631H15.0456C14.0544 7.82217 17.0252 3.65958 22.6928 3.65958C23.5696 3.65958 24.3838 3.76123 25.1244 3.94822Z" fill="#AFCA0B"/>
<path d="M45.5962 11.1214H49.2804C49.4057 8.43196 48.4617 4.17134 42.3848 4.17134C37.9136 4.17134 34.6687 6.74006 34.6687 12.0881C34.6687 12.8133 34.7005 16.5602 34.7005 18.8875C34.7005 24.6884 38.8894 25.9583 42.4157 25.9583C44.526 25.9583 47.5795 25.5044 48.9973 24.024V14.7775H42.0699V18.1323H45.156V22.2105C42.8251 22.9656 38.5744 23.2688 38.5744 18.1323V12.0881C38.5744 8.49278 40.3063 7.25289 42.226 7.25289C44.2111 7.25289 45.5962 8.22048 45.5962 11.1214ZM72.998 20.0965C73.1568 11.8167 63.2695 14.566 63.3639 9.94233C63.3948 8.31124 64.4976 7.25289 66.2921 7.25289C68.2118 7.25289 69.3464 8.3412 69.3137 11.1822H72.9354C73.0307 8.61259 72.4016 4.23125 66.4192 4.23125C62.7031 4.23125 59.6479 5.98487 59.5853 9.88243C59.4273 17.8291 69.3773 15.2314 69.2193 20.0348C69.1567 21.999 67.6772 22.8749 66.008 22.8749C64.0565 22.8749 62.4817 21.7875 62.7966 18.5244H59.1432C58.7348 22.8449 60.719 25.9283 65.9771 25.9283C70.4166 25.9283 72.9354 23.5702 72.998 20.0965ZM56.3648 25.6551H52.6488V4.50355H56.3648V25.6551ZM56.3648 25.6551H52.6488V4.50355H56.3648V25.6551Z" fill="#3C3C3B"/>
</svg>
