<svg width="94" height="31" viewBox="0 0 94 31" fill="none" xmlns="http://www.w3.org/2000/svg">
<path d="M23.1189 10.8735H12.1438V14.1254H19.9178C19.5367 18.6984 15.7259 20.6292 12.1438 20.6292C7.5454 20.6292 3.55675 17.0216 3.55675 11.9659C3.55675 7.03729 7.36756 3.25189 12.1438 3.25189C15.8276 3.25189 18.0124 5.61459 18.0124 5.61459L20.2989 3.25189C20.2989 3.25189 17.3773 0 12.0422 0C5.25891 0 0 5.74162 0 11.9151C0 17.987 4.95405 23.9065 12.22 23.9065C18.6221 23.9065 23.2967 19.5113 23.2967 13.033C23.2967 11.6611 23.1189 10.8735 23.1189 10.8735Z" fill="#4285F4"/>
<path d="M32.0869 8.51074C27.5901 8.51074 24.3636 12.0421 24.3636 16.1324C24.3636 20.2988 27.4885 23.881 32.1377 23.881C36.355 23.881 39.7847 20.6545 39.7847 16.234C39.8101 11.1275 35.7961 8.51074 32.0869 8.51074ZM32.1377 11.534C34.348 11.534 36.4566 13.3124 36.4566 16.2086C36.4566 19.0286 34.3734 20.8832 32.1377 20.8832C29.6734 20.8832 27.7426 18.927 27.7426 16.2086C27.7426 13.5156 29.648 11.534 32.1377 11.534Z" fill="#EA4335"/>
<path d="M48.9059 8.51074C44.4091 8.51074 41.1826 12.0421 41.1826 16.1324C41.1826 20.2988 44.3075 23.881 48.9567 23.881C53.174 23.881 56.6037 20.6545 56.6037 16.234C56.6037 11.1275 52.5896 8.51074 48.9059 8.51074ZM48.9567 11.534C51.1669 11.534 53.2756 13.3124 53.2756 16.2086C53.2756 19.0286 51.1923 20.8832 48.9567 20.8832C46.4923 20.8832 44.5615 18.927 44.5615 16.2086C44.5361 13.5156 46.4669 11.534 48.9567 11.534Z" fill="#FBBC05"/>
<path d="M65.368 8.51074C61.227 8.51074 58.0005 12.1183 58.0005 16.1832C58.0005 20.8069 61.7605 23.881 65.3172 23.881C67.5021 23.881 68.6708 23.0172 69.5345 22.001V23.5253C69.5345 26.1675 67.934 27.768 65.4951 27.768C63.1578 27.768 61.9637 26.015 61.5572 25.0242L58.6102 26.2691C59.6518 28.4794 61.7605 30.7913 65.5205 30.7913C69.6362 30.7913 72.761 28.1999 72.761 22.7886V8.96804H69.5345V10.2637C68.5437 9.2221 67.1718 8.51074 65.368 8.51074ZM65.6729 11.534C67.7053 11.534 69.7886 13.2615 69.7886 16.2086C69.7886 19.2064 67.7053 20.8578 65.6475 20.8578C63.4372 20.8578 61.4048 19.0794 61.4048 16.234C61.3794 13.287 63.5135 11.534 65.6729 11.534Z" fill="#4285F4"/>
<path d="M87.0644 8.51074C83.1774 8.51074 79.9001 11.6102 79.9001 16.1832C79.9001 21.0356 83.5585 23.9064 87.4455 23.9064C90.6974 23.9064 92.7044 22.128 93.873 20.5275L91.2055 18.7491C90.5195 19.8161 89.3509 20.8578 87.4455 20.8578C85.286 20.8578 84.2952 19.6637 83.6855 18.5205L94.0001 14.2524L93.4666 13.0075C92.4757 10.5432 90.1385 8.51074 87.0644 8.51074ZM87.2168 11.4578C88.6141 11.4578 89.6303 12.1945 90.0622 13.1091L83.1774 15.9799C82.8725 13.7443 84.9812 11.4578 87.2168 11.4578Z" fill="#EA4335"/>
<path d="M78.3754 0.787354H74.9965V23.449H78.3754V0.787354Z" fill="#34A853"/>
</svg>
