<svg width="94" height="27" viewBox="0 0 94 27" fill="none" xmlns="http://www.w3.org/2000/svg">
<path fill-rule="evenodd" clip-rule="evenodd" d="M64.8789 14.1524V16.2786H55.2714C55.4176 18.9899 56.5426 20.3286 59.4339 20.3286C61.3914 20.3286 63.4952 19.6986 64.7102 18.8886V22.1399C63.5852 22.9049 61.6726 23.4674 59.1189 23.4674C54.0226 23.4674 51.1314 20.6549 51.1314 14.8836C51.1314 9.82111 53.4601 6.1311 58.3201 6.1311C62.3027 6.1311 64.8789 8.32486 64.8789 14.1524ZM58.2301 9.29236C56.3176 9.29236 55.3501 10.6874 55.2601 13.3311H60.8064V12.9936C60.8064 10.9011 60.2101 9.29236 58.2189 9.29236H58.2301ZM28.1701 13.1061V6.43485H32.1863V23.2986H28.1701V16.2449H22.8263V23.2986H18.8438V6.4236H22.8263V13.1061H28.1701ZM81.9789 23.2986H77.4564L71.5502 15.0186V23.2986H67.5677V6.4236H71.5502V14.2199L77.1752 6.43485H81.2139L75.5889 14.2199L81.9789 23.2986ZM93.769 22.4549C92.7902 23.1636 91.4965 23.5011 89.6402 23.5011C84.3302 23.5011 81.7427 20.4186 81.7314 14.8949C81.7314 9.79861 84.3752 6.1761 89.4715 6.1761C91.4515 6.1761 92.9252 6.5136 93.769 6.98611V10.3611C92.5986 9.68676 91.2722 9.32997 89.9215 9.32611C87.3002 9.32611 85.8715 11.1711 85.8715 14.7936C85.8715 18.2136 87.0302 20.3511 89.8877 20.3511C91.564 20.3511 92.7565 19.9011 93.769 19.2036V22.4661V22.4549ZM48.3751 20.1374H50.1526V26.9999H46.4626V23.2649H37.5188V26.9999H33.8288V20.1261H35.0663C36.4726 17.3136 36.7538 11.9811 36.7538 7.86361V6.4236H48.3751V20.1374ZM38.7676 20.1374H44.3926V9.58486H40.1739V10.0799C40.1739 12.9936 39.8814 17.5949 38.7676 20.1374Z" fill="black"/>
<path d="M15.4913 23.2875V0H9.59627C3.65626 0 0.551251 3.03751 0.551251 7.53752C0.551251 11.1038 2.25 13.2413 5.29876 15.4125L0 23.2875H4.38751L10.2938 14.4563L8.24627 13.095C5.77126 11.4075 4.54501 10.1138 4.54501 7.29001C4.54501 4.81501 6.28876 3.13876 9.60752 3.13876H11.4188V23.2763H15.4913V23.2875Z" fill="#FC3F1D"/>
</svg>
