<svg width="24" height="20" viewBox="0 0 24 20" fill="none" xmlns="http://www.w3.org/2000/svg">
<path d="M5.75432 11.8427L2.42691 19.2003H0L3.65381 11.332C1.93635 10.4728 0.791051 8.91564 0.791051 6.04232C0.791051 2.01411 3.38309 0 6.46473 0H9.60013V19.2003H7.49962V11.8427H5.75432ZM7.49962 1.7453H6.38217C4.69062 1.7453 3.0538 2.84644 3.0538 6.04232C3.0538 9.12972 4.5543 10.1233 6.38217 10.1233H7.49962V1.7453Z" fill="#FF0202"/>
<path fill-rule="evenodd" clip-rule="evenodd" d="M22.9097 6.38129L17.4761 5.59312L15.0549 0.696097C14.9506 0.48489 14.7888 0.307471 14.588 0.184318C14.3872 0.0611647 14.1557 -0.00270244 13.9202 8.76572e-05C13.468 8.76572e-05 13.0149 0.232411 12.7854 0.696097L11.5201 3.25549V7.46035L13.9202 2.90893L15.652 6.41201L16.11 7.33843L17.1717 7.49203L21.2336 8.08148L18.2326 11.0009L17.5193 11.6959L17.6834 12.655L18.3718 16.6611L14.8927 14.8352L13.9202 14.3244L12.9477 14.8352L11.5201 15.584V17.7766L13.9202 16.5171L18.7462 19.0496C18.943 19.1533 19.1484 19.2003 19.3471 19.2003C20.0863 19.2003 20.7391 18.5504 20.6019 17.7469L19.6735 12.3449L23.6221 8.50196C24.367 7.77811 23.9485 6.53202 22.9097 6.38129Z" fill="#FFC200"/>
</svg>
