<svg width="82" height="21" viewBox="0 0 82 21" fill="none" xmlns="http://www.w3.org/2000/svg">
<path d="M0.720052 1.34499H17.7956C18.1932 1.34499 18.5156 1.67 18.5156 2.07091V5.45619C18.5156 5.90712 18.3215 6.33407 17.9836 6.62953L8.43489 14.6829H17.7956C18.1932 14.6829 18.5156 15.0019 18.5156 15.4029V19.2893C18.5156 19.6902 18.1932 20.0152 17.7956 20.0152H0.720052C0.322378 20.0152 0 19.6902 0 19.2893V15.9095C0 15.4586 0.19409 15.0317 0.531979 14.7362L10.0807 6.68286H0.720052C0.322378 6.68286 0 6.35045 0 5.94953V2.07091C0 1.67 0.322378 1.34499 0.720052 1.34499ZM30.4185 0.682861C32.3929 0.682861 34.1532 1.13048 35.6226 1.94846C37.0921 2.76644 38.2709 3.9548 39.0822 5.43628C39.8936 6.91776 40.3376 8.69237 40.3376 10.6829C40.3376 12.6734 39.8936 14.448 39.0822 15.9294C38.2709 17.4109 37.0921 18.5993 35.6226 19.4173C34.1532 20.2352 32.3929 20.6829 30.4185 20.6829C28.4441 20.6829 26.6839 20.2352 25.2144 19.4173C23.7449 18.5993 22.5662 17.4109 21.7548 15.9294C20.9434 14.448 20.4994 12.6734 20.4994 10.6829C20.4994 8.69237 20.9434 6.91776 21.7548 5.43628C22.5662 3.9548 23.7449 2.76644 25.2144 1.94846C26.6839 1.13048 28.4441 0.682861 30.4185 0.682861ZM30.4185 6.01619C29.4741 6.01619 28.6449 6.21733 27.9592 6.5913C27.2734 6.96527 26.731 7.51208 26.3601 8.20344C25.9891 8.8948 25.7896 9.7307 25.7896 10.6829C25.7896 11.635 25.9891 12.4709 26.3601 13.1623C26.731 13.8536 27.2734 14.4005 27.9592 14.7744C28.6449 15.1484 29.4741 15.3495 30.4185 15.3495C31.363 15.3495 32.1921 15.1484 32.8779 14.7744C33.5636 14.4005 34.106 13.8536 34.477 13.1623C34.8479 12.4709 35.0474 11.635 35.0474 10.6829C35.0474 9.7307 34.8479 8.8948 34.477 8.20344C34.106 7.51208 33.5636 6.96527 32.8779 6.5913C32.1921 6.21733 31.363 6.01619 30.4185 6.01619ZM51.5792 0.682861C53.5536 0.682861 55.3139 1.13048 56.7834 1.94846C58.2528 2.76644 59.4316 3.9548 60.243 5.43628C61.0543 6.91776 61.4983 8.69237 61.4983 10.6829C61.4983 12.6734 61.0543 14.448 60.243 15.9294C59.4316 17.4109 58.2528 18.5993 56.7834 19.4173C55.3139 20.2352 53.5536 20.6829 51.5792 20.6829C49.6048 20.6829 47.8446 20.2352 46.3751 19.4173C44.9056 18.5993 43.7269 17.4109 42.9155 15.9294C42.1041 14.448 41.6601 12.6734 41.6601 10.6829C41.6601 8.69237 42.1041 6.91776 42.9155 5.43628C43.7269 3.9548 44.9056 2.76644 46.3751 1.94846C47.8446 1.13048 49.6048 0.682861 51.5792 0.682861ZM51.5792 6.01619C50.6348 6.01619 49.8056 6.21733 49.1199 6.5913C48.4341 6.96527 47.8917 7.51208 47.5208 8.20344C47.1498 8.8948 46.9503 9.7307 46.9503 10.6829C46.9503 11.635 47.1498 12.4709 47.5208 13.1623C47.8917 13.8536 48.4341 14.4005 49.1199 14.7744C49.8056 15.1484 50.6348 15.3495 51.5792 15.3495C52.5237 15.3495 53.3528 15.1484 54.0386 14.7744C54.7243 14.4005 55.2667 13.8536 55.6377 13.1623C56.0086 12.4709 56.2081 11.635 56.2081 10.6829C56.2081 9.7307 56.0086 8.8948 55.6377 8.20344C55.2667 7.51208 54.7243 6.96527 54.0386 6.5913C53.3528 6.21733 52.5237 6.01619 51.5792 6.01619ZM82 2.07322V19.289C82 19.6899 81.6776 20.0149 81.2799 20.0149H77.9243C77.4771 20.0149 77.0536 19.8193 76.7605 19.4787L68.7723 9.85319V19.289C68.7723 19.6899 68.4426 20.0149 68.0449 20.0149H64.2C63.8023 20.0149 63.4799 19.6899 63.4799 19.289V2.07322C63.4799 1.67228 63.8023 1.34726 64.2 1.34726H67.5556C68.0029 1.34726 68.4263 1.54298 68.7194 1.88371L76.7076 11.5125V2.07322C76.7076 1.67228 77.0241 1.34726 77.4217 1.34726H81.2799C81.6776 1.34726 82 1.67228 82 2.07322Z" fill="url(#paint0_linear)"/>
<defs>
<linearGradient id="paint0_linear" x1="63.4214" y1="10.6829" x2="17.8852" y2="10.6829" gradientUnits="userSpaceOnUse">
<stop stop-color="#6339F5"/>
<stop offset="1" stop-color="#3D3F53"/>
</linearGradient>
</defs>
</svg>
