<svg width="20" height="20" viewBox="0 0 20 20" fill="none" xmlns="http://www.w3.org/2000/svg">
<circle cx="10" cy="10" r="10" fill="#075157"/>
<path fill-rule="evenodd" clip-rule="evenodd" d="M7.15537 4.16934C6.32273 4.51432 5.62252 4.99339 4.876 5.7289C3.92563 6.66529 3.36977 7.68297 3.09227 8.99457C3.02313 9.32158 3.00071 9.66304 3.00004 10.4001C2.99922 11.3079 3.00876 11.4085 3.1412 11.8915C3.21927 12.1764 3.34227 12.5488 3.41449 12.719C3.71497 13.4272 4.25129 14.3282 4.64918 14.7931L4.82624 15H6.42075H8.01525L7.58424 14.727C6.97933 14.3439 6.50564 13.9741 5.99912 13.4896C5.23726 12.7607 4.78505 12.0355 4.52766 11.1298C4.40174 10.6866 4.38922 10.5635 4.38681 9.74292C4.38445 8.94745 4.39799 8.79416 4.50314 8.42865C4.73073 7.63741 5.21961 6.80426 5.8043 6.21109C6.27533 5.73328 6.68752 5.63729 6.98841 5.93529C7.15024 6.09563 7.13691 6.05683 8.74583 11.0445C9.42151 13.1391 9.98589 14.8528 10 14.8528C10.0141 14.8528 10.5785 13.1391 11.2542 11.0445C12.8631 6.05683 12.8498 6.09563 13.0116 5.93529C13.3125 5.63729 13.7247 5.73328 14.1957 6.21109C14.7804 6.80426 15.2693 7.63741 15.4969 8.42865C15.602 8.79416 15.6155 8.94745 15.6132 9.74292C15.6108 10.5635 15.5983 10.6866 15.4723 11.1298C15.2149 12.0355 14.7627 12.7607 14.0009 13.4896C13.4944 13.9741 13.0207 14.3439 12.4158 14.727L11.9847 15H13.5793H15.1738L15.3508 14.7931C15.7487 14.3282 16.285 13.4272 16.5855 12.719C16.6577 12.5488 16.7807 12.1764 16.8588 11.8915C16.9912 11.4085 17.0008 11.3079 17 10.4001C16.999 9.35117 16.9404 8.93586 16.6848 8.16706C16.5334 7.71174 16.2062 7.07257 15.8648 6.56555C15.5376 6.07961 14.4582 5.07093 13.8777 4.70878C13.4665 4.4523 12.7558 4.105 12.4877 4.0296C12.3922 4.00273 12.3039 4.26329 11.2054 7.81601C10.5565 9.91441 10.0124 11.6236 9.9961 11.6143C9.97989 11.605 9.43747 9.88788 8.79071 7.79853C8.144 5.70918 7.60332 3.99981 7.58921 4C7.57511 4.00015 7.37988 4.07637 7.15537 4.16934Z" fill="white"/>
</svg>
