<svg width="54" height="54" viewBox="0 0 54 54" fill="none" xmlns="http://www.w3.org/2000/svg">
<circle cx="27" cy="27" r="27" fill="#6D81AE"/>
<circle cx="27" cy="26.9998" r="23.22" fill="#8899BD"/>
<path fill-rule="evenodd" clip-rule="evenodd" d="M15.6643 16.0657C14.2372 16.4004 13.5113 17.5614 13.6058 19.358C13.6907 20.9714 14.4082 21.8755 15.7761 22.093C16.4446 22.1992 17.4836 22.0835 17.894 21.8571C18.0085 21.794 18.0208 21.741 18.0208 21.3147C18.0208 21.0548 18.0075 20.8421 17.9913 20.8421C17.9751 20.8421 17.7744 20.896 17.5452 20.9617C16.9213 21.141 16.1001 21.1328 15.7026 20.9436C15.1 20.6568 14.8042 20.1534 14.7543 19.3303C14.6607 17.7824 15.3431 16.9243 16.6107 16.9961L16.956 17.0157L16.9724 17.6238L16.9888 18.2318H17.476H17.9633V17.2256V16.2194L17.6611 16.1243C17.2304 15.9886 16.1303 15.9564 15.6643 16.0657ZM19.8473 17.5218C19.6647 17.5512 19.4121 17.6039 19.2861 17.6389L19.0569 17.7025V18.1748C19.0569 18.4346 19.0763 18.6471 19.1001 18.6471C19.1238 18.6471 19.3316 18.6065 19.5619 18.557C20.0674 18.4483 20.8796 18.4338 21.1583 18.5286C21.3848 18.6057 21.5319 18.8356 21.5319 19.1126V19.2872L20.6253 19.3104C19.8362 19.3306 19.6816 19.351 19.4317 19.4679C18.8753 19.7281 18.6565 20.0824 18.6565 20.7235C18.6565 21.6058 19.1213 22.0441 20.0642 22.0507C20.6094 22.0545 21.0227 21.9274 21.3803 21.646L21.6258 21.4528L21.7177 21.6179C21.9167 21.9751 22.0321 21.9971 23.8198 22.018L25.4458 22.0369V21.1429V20.2489H26.3092H27.1726V21.1403V22.0317L28.0504 22.0154L28.9281 21.999V21.554V21.1091L28.5684 21.0914L28.2086 21.0738V19.3265V17.5793H27.6906H27.1726V18.4707V19.3622L26.3236 19.3458L25.4746 19.3294L25.4587 18.4543L25.4428 17.5793H24.5521H23.6615V18.0242V18.4691H24.0357H24.4098V19.8336V21.1981H23.4889H22.5679V19.9631C22.5679 18.2799 22.4624 17.945 21.8327 17.6306C21.602 17.5155 21.4556 17.4928 20.87 17.4816C20.4901 17.4743 20.0298 17.4924 19.8473 17.5218ZM29.3022 18.0242V18.4691H29.6764H30.0505V20.2511V22.0331L30.5829 22.0161L31.1153 21.999L31.1312 21.0943L31.1471 20.1896L31.3902 20.19L31.6333 20.1906L32.0938 20.936C32.66 21.8526 32.8215 21.9757 33.5116 22.0169L33.9645 22.0439V21.5616V21.0794H33.7592C33.6463 21.0794 33.5027 21.0511 33.4401 21.0166C33.3774 20.9821 33.1308 20.6436 32.892 20.2645L32.4578 19.5753L33.096 18.6094C33.447 18.0783 33.7342 17.6292 33.7342 17.6115C33.7342 17.5937 33.4871 17.5793 33.1852 17.5793H32.6361L32.0559 18.4988C31.5289 19.334 31.4605 19.4183 31.3099 19.4183H31.1441V18.4988V17.5793H30.2232H29.3022V18.0242ZM34.3226 18.4543L34.3386 19.3294L34.7847 19.3467L35.2307 19.364V18.8869V18.4098H35.5761H35.9214V19.7446V21.0794H35.4034H34.8854V21.554V22.0286H36.4395H37.9935V21.554V21.0794H37.4755H36.9575V19.7446V18.4098H37.3028H37.6482V18.8844V19.359H38.0799H38.5116V18.4691V17.5793H36.4091H34.3068L34.3226 18.4543ZM39.1447 19.8929V20.3675H40.2959H41.447V19.8929V19.4183H40.2959H39.1447V19.8929ZM21.5211 20.3597C21.5354 20.5648 21.5114 20.6496 21.406 20.766C21.1057 21.0977 20.4314 21.308 20.0277 21.196C19.6773 21.0987 19.5219 20.6753 19.7262 20.3747C19.8912 20.1319 20.1215 20.0725 20.8412 20.0871L21.5031 20.1006L21.5211 20.3597ZM13.8966 23.6954C12.8594 23.874 12.3383 24.4179 12.2775 25.3852C12.2389 25.9992 12.3743 26.4297 12.7167 26.7824C12.99 27.0637 13.4092 27.2493 13.772 27.2493H13.9342V26.8099V26.3706L13.6896 26.2909C13.0845 26.0935 13.0327 25.076 13.6098 24.7246C13.7297 24.6516 13.9432 24.6079 14.2639 24.5905L14.74 24.5647V27.0639V29.5629H15.2868H15.8336V27.0713V24.5796H16.8697H17.9057V27.0713V29.5629H18.8554H19.8051V29.0883V28.6137H19.4022H18.9993V26.1221V23.6304L16.5963 23.6374C15.2746 23.6412 14.0597 23.6673 13.8966 23.6954ZM22.0054 25.0609C21.2901 25.1837 20.7219 25.694 20.4967 26.4159C20.383 26.7805 20.3699 26.9196 20.3948 27.5014C20.4124 27.9144 20.4573 28.2479 20.5124 28.3764C20.6641 28.7303 20.9405 29.0738 21.1993 29.2301C21.7226 29.5462 21.9137 29.5611 25.4602 29.562L28.7267 29.5629V29.1477V28.7324H28.1799H27.6331V27.3679V26.0034H28.0072H28.3813V26.4484V26.8933H28.813H29.2447V26.0034V25.1136H27.1438H25.0429V26.0034V26.8933H25.4746H25.9063V26.4484V26.0034H26.2804H26.6546V27.3679V28.7324H24.5066C22.1438 28.7324 21.9247 28.7062 21.6292 28.3882C21.4866 28.2349 21.3592 27.9289 21.3592 27.74C21.3592 27.6839 21.7088 27.6628 22.8413 27.6507L24.3235 27.6349L24.3206 27.012C24.3182 26.4609 24.2995 26.348 24.1591 26.0333C24.0717 25.8376 23.9435 25.6147 23.874 25.538C23.6817 25.3253 23.2545 25.1251 22.8478 25.057C22.4374 24.9884 22.4273 24.9884 22.0054 25.0609ZM31.5477 25.0627C30.6402 25.2177 30.0862 25.8491 29.9261 26.9112C29.7434 28.1219 30.225 29.1551 31.1356 29.5064C31.7039 29.7256 32.696 29.7235 33.4608 29.5014L33.6767 29.4387V28.9902C33.6767 28.6146 33.6626 28.5473 33.5898 28.5761C33.3391 28.6752 32.684 28.743 32.1909 28.7207C31.3599 28.6834 31.0007 28.448 30.9285 27.8936L30.8987 27.6645H32.3699H33.8411L33.8803 27.3407C33.9232 26.9867 33.8401 26.3744 33.7034 26.0371C33.5876 25.7516 33.2453 25.3686 32.9825 25.2304C32.7862 25.1271 32.1521 24.9871 31.9499 25.0023C31.9024 25.0059 31.7214 25.033 31.5477 25.0627ZM37.2165 25.054C36.8481 25.1106 36.5231 25.2516 36.259 25.4695L36.0498 25.6421L35.9138 25.3778L35.7777 25.1136H35.1013H34.4249V25.5558V25.998L34.8134 26.0155L35.202 26.0331L35.217 28.3023L35.2321 30.5715H34.8285H34.4249V30.9571V31.3427H35.7488H37.0726V30.9571V30.5715H36.6697H36.2668V30.0375C36.2668 29.7439 36.2777 29.5036 36.2909 29.5036C36.3042 29.5036 36.4784 29.5467 36.678 29.5994C37.7766 29.8896 38.776 29.4237 39.1556 28.4445C39.2691 28.1516 39.2857 28.0011 39.287 27.2493C39.2885 26.4455 39.2788 26.3676 39.1395 26.0628C38.9324 25.6094 38.7287 25.3812 38.3794 25.211C38.0375 25.0444 37.6336 24.9899 37.2165 25.054ZM41.7712 25.247C41.6404 25.4617 39.5479 29.3743 39.5112 29.4731C39.4827 29.5496 39.5616 29.5627 40.0451 29.5611L40.6124 29.5594L41.6054 27.7072C42.1515 26.6886 42.6887 25.6883 42.7992 25.4843L43 25.1136H42.4263C41.8938 25.1136 41.8468 25.1232 41.7712 25.247ZM22.9398 25.9937C23.1409 26.1148 23.3011 26.3768 23.3267 26.6263L23.345 26.8043L22.3996 26.8207C21.8479 26.8302 21.4312 26.8132 21.3989 26.7799C21.3213 26.7 21.5801 26.1864 21.7692 26.0451C22.0815 25.8116 22.5995 25.7889 22.9398 25.9937ZM32.498 26.0043C32.7036 26.1352 32.8708 26.4382 32.8708 26.6798V26.834H31.8924C30.8135 26.834 30.835 26.8429 30.9928 26.4613C31.2255 25.8984 31.9747 25.6709 32.498 26.0043ZM37.7639 26.0776C38.1267 26.2673 38.3103 26.651 38.3095 27.218C38.3081 28.3247 37.7661 28.9117 36.8999 28.7447C36.7258 28.7111 36.5122 28.6553 36.4251 28.6205L36.2668 28.5574V27.5465V26.5356L36.4538 26.3264C36.7921 25.948 37.3232 25.8471 37.7639 26.0776ZM17.5076 31.2285C16.2849 31.5203 15.8298 31.7138 15.3957 32.1261C14.9035 32.5938 14.6665 33.3514 14.6665 34.4572C14.6666 35.8296 15.1091 36.6968 15.9822 37.0353C16.2751 37.1489 16.4076 37.1641 16.9272 37.1441C17.4388 37.1245 17.5814 37.0961 17.8564 36.9595C18.6696 36.5552 19.119 35.5441 18.9512 34.4966C18.867 33.9712 18.7574 33.709 18.4983 33.4134C18.233 33.1107 17.9577 32.9652 17.5098 32.8909C16.87 32.7847 16.2031 32.9735 15.7905 33.3778C15.6434 33.5218 15.6034 33.5391 15.6034 33.4585C15.6034 33.2738 15.7554 32.9777 15.9511 32.7814C16.1962 32.5354 16.5604 32.3967 17.4826 32.1982C18.5576 31.9668 18.4813 32.0208 18.4813 31.4925C18.4813 30.9602 18.5517 30.9792 17.5076 31.2285ZM27.2589 32.6124C26.9514 32.7129 26.5781 32.914 26.4854 33.0291C26.3743 33.167 26.3374 33.1468 26.2229 32.8851L26.119 32.6478H25.4371H24.7551V33.0928V33.5377H25.1293H25.5034V35.7921V38.0464H25.1293H24.7551V38.4617V38.877H26.0502H27.3453V38.4617V38.0464H26.9424H26.5394V37.5061C26.5394 37.0313 26.5508 36.9704 26.6332 37.0029C27.1573 37.2103 28.138 37.2032 28.538 36.9892C29.0914 36.6931 29.4164 36.2248 29.5629 35.512C29.7877 34.4187 29.5294 33.3241 28.9367 32.8583C28.5433 32.5489 27.7905 32.4386 27.2589 32.6124ZM11 32.6923C11.0007 32.7168 11.5275 33.7112 12.1706 34.9022L13.34 37.0675L13.9007 37.0846C14.3688 37.0988 14.4583 37.0873 14.4424 37.0148C14.432 36.9671 13.9054 35.9655 13.2723 34.7889L12.1211 32.6498L11.5599 32.6488C11.2513 32.6482 10.9993 32.6678 11 32.6923ZM19.9203 34.1828C19.9203 35.807 19.9563 36.0794 20.2075 36.3551C20.3171 36.4753 20.3154 36.4855 20.0381 37.3653C19.7171 38.3841 19.7073 38.3282 20.2591 38.6313C20.9449 39.0081 21.8643 39.1062 22.5763 38.8787C23.0538 38.7261 23.3278 38.4851 23.5414 38.0294C23.7912 37.4968 23.8342 37.006 23.8342 34.6903V32.6478H23.2874H22.7406L22.7403 33.7898C22.7399 35.0042 22.6979 35.2921 22.4769 35.594C22.1935 35.9812 21.4755 36.0794 21.193 35.7695C20.9891 35.5458 20.9563 35.292 20.9563 33.9386V32.6478H20.4383H19.9203V34.1828ZM30.2232 33.0605V33.4732L30.6405 33.4906L31.0578 33.508L31.0733 34.828L31.0887 36.148H30.656H30.2232V36.5929V37.0379H31.6333H33.0435V36.5929V36.148H32.5831H32.1226V34.8132V33.4784H32.727H33.3313V33.9233V34.3683H33.8206H34.3098V33.508V32.6478H32.2665H30.2232V33.0605ZM28.1519 33.6119C28.4309 33.8072 28.5774 34.1426 28.6023 34.6434C28.641 35.4174 28.349 36.0519 27.8808 36.2111C27.626 36.2978 27.0477 36.2556 26.7553 36.1289L26.5394 36.0354V35.1099C26.5394 34.1493 26.5725 33.9829 26.8071 33.7642C27.1493 33.4449 27.8072 33.3704 28.1519 33.6119ZM17.2908 33.8016C17.6855 33.9468 17.9133 34.2701 17.9867 34.7895C18.0687 35.3693 17.8301 35.8772 17.362 36.1194C17.045 36.2834 16.7768 36.3014 16.4486 36.1807C16.1545 36.0726 16.0335 35.9501 15.8602 35.585C15.7428 35.3378 15.714 35.1868 15.7118 34.8084L15.709 34.3386L15.9521 34.1155C16.3379 33.7614 16.8528 33.6406 17.2908 33.8016ZM22.7255 36.8192C22.708 37.1231 22.6559 37.4647 22.6098 37.5783C22.4913 37.8708 22.2218 38.0835 21.9085 38.1319C21.5958 38.1802 21.0955 38.084 20.9134 37.9405L20.7841 37.8387L20.9299 37.3493L21.0758 36.8599H21.3509C21.744 36.8599 22.1786 36.7107 22.4647 36.4773C22.6006 36.3665 22.7221 36.2738 22.7347 36.2712C22.7472 36.2687 22.7431 36.5153 22.7255 36.8192Z" fill="#FFB800"/>
</svg>
