<svg width="54" height="54" viewBox="0 0 54 54" fill="none" xmlns="http://www.w3.org/2000/svg">
<circle cx="27" cy="27" r="27" fill="#6D81AE"/>
<circle cx="27" cy="26.9998" r="23.22" fill="#8899BD"/>
<path fill-rule="evenodd" clip-rule="evenodd" d="M11.3778 16.0238C11.2509 16.0718 11.1243 16.1935 11.0654 16.3241C11.0038 16.4609 11.0015 16.7179 11.0008 23.6178L11 30.7698H21.4417H31.8835V23.6165V16.4632L31.8062 16.309C31.7553 16.2074 31.6821 16.1284 31.5915 16.0774L31.4541 16L21.4417 16.0021C15.9349 16.0034 11.4062 16.0131 11.3778 16.0238ZM33.017 25.9442V30.7698L34.5712 30.7699C36.2829 30.7701 36.5194 30.7897 37.0772 30.978C38.1424 31.3374 39.0257 32.1624 39.4581 33.2018C39.5389 33.3958 39.6315 33.679 39.664 33.8312C39.6965 33.9834 39.7273 34.1245 39.7325 34.1447C39.739 34.1697 40.1264 34.1802 40.9563 34.1776C42.0017 34.1745 42.185 34.1662 42.2737 34.1183C42.4062 34.0467 42.5171 33.9261 42.5633 33.803C42.5881 33.7372 42.6 32.8608 42.6 31.0971V28.4885L39.5662 28.479L36.5324 28.4694L36.243 28.3249C35.8014 28.1043 35.4968 27.7607 35.3437 27.3106C35.2673 27.0859 35.2672 27.0836 35.2571 24.1021L35.2471 21.1185H34.132H33.017V25.9442ZM36.3909 24.0329C36.4012 27.2724 36.3862 27.0711 36.6315 27.2473L36.7437 27.3279L39.6718 27.3371L42.6 27.3463V26.6593C42.6 26.0114 42.5956 25.9644 42.5227 25.8325C42.4003 25.611 38.5182 21.2329 38.3897 21.1715C38.2986 21.1279 38.1107 21.1185 37.3303 21.1185H36.3815L36.3909 24.0329ZM12.1335 32.8085C12.1335 33.7384 12.1456 33.8343 12.2818 33.9815C12.4454 34.1586 12.5178 34.174 13.2097 34.1798C13.6611 34.1836 13.8596 34.1736 13.8667 34.1466C13.8723 34.1254 13.9037 33.9834 13.9364 33.8312C14.0592 33.2591 14.3606 32.6598 14.7757 32.1621L14.9848 31.9114H13.5592H12.1335V32.8085ZM17.2341 31.9617C16.739 32.0525 16.2517 32.3044 15.8695 32.6671C15.56 32.9607 15.3872 33.197 15.2214 33.5534C14.5685 34.9566 15.1484 36.5889 16.553 37.3022C17.5724 37.8198 18.9063 37.5991 19.7361 36.7757C20.0931 36.4214 20.3014 36.0793 20.4651 35.5781C20.5533 35.3082 20.5612 35.2402 20.5623 34.7479C20.5634 34.2356 20.5586 34.1971 20.454 33.8831C19.9963 32.5079 18.6467 31.7026 17.2341 31.9617ZM20.714 32.1012C21.0892 32.5146 21.4113 33.1126 21.5621 33.6756C21.6105 33.8563 21.6616 34.0431 21.6755 34.0907L21.701 34.1772L22.5503 34.1801L23.3996 34.183V33.0472V31.9114H21.9707H20.5418L20.714 32.1012ZM24.5411 33.0443L24.5502 34.1772L26.5166 34.1791L28.483 34.181V33.0462V31.9114H26.5076H24.5321L24.5411 33.0443ZM29.6246 33.0443L29.6337 34.1772H30.7663H31.899L31.9245 34.0907C31.9384 34.0431 31.9895 33.8563 32.0379 33.6756C32.1887 33.1126 32.5108 32.5146 32.886 32.1012L33.0582 31.9114H31.3369H29.6156L29.6246 33.0443ZM35.2839 31.9608C34.2356 32.1843 33.4189 32.9413 33.1166 33.9696C33.0171 34.3081 32.9919 34.9545 33.0647 35.2995C33.3633 36.7136 34.6054 37.6693 36.0196 37.5729C36.4239 37.5453 36.7692 37.446 37.1545 37.2465C37.4051 37.1167 37.5287 37.022 37.7949 36.7557C38.1438 36.4067 38.3174 36.1404 38.4713 35.7185C38.9613 34.3744 38.3678 32.8655 37.0981 32.2274C36.9032 32.1294 36.651 32.025 36.5376 31.9953C36.2495 31.92 35.5638 31.901 35.2839 31.9608ZM18.4661 33.2009C18.91 33.4131 19.2297 33.7722 19.3816 34.229C19.4441 34.417 19.4543 34.5136 19.4439 34.8171C19.4325 35.1515 19.4214 35.2017 19.3041 35.45C18.855 36.4005 17.7183 36.7358 16.8536 36.1729C16.119 35.6947 15.8733 34.7456 16.2765 33.944C16.3944 33.7099 16.7396 33.3642 16.9775 33.2422C17.2807 33.0868 17.4402 33.0539 17.8387 33.0649C18.1761 33.0742 18.2222 33.0842 18.4661 33.2009ZM36.2823 33.1087C36.385 33.1393 36.5457 33.2036 36.6397 33.2515C36.8537 33.3606 37.1958 33.7066 37.3182 33.9376C37.5802 34.4321 37.5802 35.0638 37.3182 35.5583C37.1989 35.7835 36.8617 36.123 36.6381 36.2432C36.2969 36.4266 35.8003 36.4934 35.4253 36.4063C35.0518 36.3196 34.6153 36.0008 34.3965 35.655C34.0612 35.125 34.0604 34.3723 34.3945 33.844C34.6073 33.5075 35.0567 33.1749 35.4129 33.0904C35.6292 33.039 36.0811 33.0485 36.2823 33.1087ZM17.5776 34.2118C17.0562 34.3975 17.0931 35.1561 17.6307 35.3018C18.0278 35.4095 18.437 35.0023 18.3215 34.6142C18.2666 34.4296 18.1578 34.3011 17.9925 34.2254C17.8257 34.1492 17.7597 34.147 17.5776 34.2118ZM35.5638 34.2512C35.3925 34.3391 35.2803 34.5311 35.2787 34.7393C35.2762 35.0688 35.4648 35.2707 35.7969 35.2941C36.0173 35.3096 36.1696 35.2297 36.3049 35.0274C36.4526 34.8067 36.3792 34.4531 36.1504 34.2826C36.0255 34.1896 35.7162 34.173 35.5638 34.2512Z" fill="#FFB800"/>
</svg>
