<svg width="54" height="54" viewBox="0 0 54 54" fill="none" xmlns="http://www.w3.org/2000/svg">
<circle cx="27" cy="27" r="27" fill="#6D81AE"/>
<circle cx="27" cy="26.9998" r="23.22" fill="#8899BD"/>
<path d="M19.7923 39V35.4034H17V32.1429H19.7923V29.521H17V25.3529H19.7923V15H27.7504C30.9616 15 33.3002 15.6275 34.7661 16.8824C36.2554 18.1373 37 19.8627 37 22.0588C37 23.3585 36.6975 24.5798 36.0925 25.7227C35.4875 26.8655 34.4753 27.7843 33.0558 28.479C31.6597 29.1737 29.7516 29.521 27.3316 29.521H25.0628V32.1429H30.438V35.4034H25.0628V39H19.7923ZM26.808 25.3529C28.2973 25.3529 29.4724 25.1064 30.3333 24.6134C31.2176 24.1204 31.6597 23.3249 31.6597 22.2269C31.6597 20.1877 30.2635 19.1681 27.4712 19.1681H25.0628V25.3529H26.808Z" fill="#FFB800"/>
</svg>
