<svg width="54" height="54" viewBox="0 0 54 54" fill="none" xmlns="http://www.w3.org/2000/svg">
<circle cx="27" cy="27" r="27" fill="#6D81AE"/>
<circle cx="27" cy="26.9998" r="23.22" fill="#8899BD"/>
<path fill-rule="evenodd" clip-rule="evenodd" d="M26.7933 11.017C26.3557 11.0923 25.9851 11.4223 25.8514 11.856C25.803 12.0129 25.8005 12.145 25.8005 14.6116V17.2023L21.8185 18.2569L17.8365 19.3115L14.4103 27.8687C11.6198 34.8383 10.9871 36.441 11.0002 36.5072C11.0458 36.7375 11.3852 37.4157 11.6736 37.8529C12.7287 39.4527 14.3633 40.5241 16.2751 40.8691C16.8477 40.9724 17.1865 41.0006 17.8448 41C19.8494 40.998 21.4925 40.399 22.849 39.1757C23.6123 38.4872 24.3078 37.4819 24.6187 36.6173L24.6783 36.4515L21.5206 28.565C19.7839 24.2274 18.3671 20.6755 18.3722 20.6718C18.4076 20.646 35.4751 16.143 35.4809 16.1579C35.4849 16.1683 34.1585 19.4971 32.5333 23.5551C30.9081 27.6131 29.518 31.0867 29.4441 31.2742L29.3097 31.6152L29.4244 31.9059C29.7123 32.6352 30.2491 33.4335 30.8843 34.0768C32.3343 35.5452 34.2928 36.2538 36.6005 36.145C38.2793 36.0659 39.7159 35.5379 40.9205 34.5572C41.4537 34.1231 42.0559 33.4327 42.4312 32.8253C42.6783 32.4253 43 31.7364 43 31.6074C43 31.5745 36.1673 14.4772 36.1488 14.4637C36.1464 14.462 34.3875 14.9261 32.2403 15.4952C30.093 16.0642 28.303 16.5381 28.2624 16.5483L28.1886 16.5669V14.2939C28.1886 12.1391 28.1859 12.0123 28.1378 11.856C27.9588 11.2756 27.3822 10.9157 26.7933 11.017ZM39.0938 24.3883C40.9825 29.1043 41.9769 31.6193 41.9662 31.6532C41.9502 31.7042 41.8415 31.7051 36.1589 31.7051C30.9482 31.7051 30.3661 31.7009 30.3518 31.6631C30.3427 31.6393 31.5879 28.4945 33.223 24.4117C34.8109 20.4466 36.1221 17.1719 36.1367 17.1346C36.1619 17.0704 36.1644 17.0697 36.1842 17.1211C36.1957 17.1509 37.505 20.4211 39.0938 24.3883ZM20.7527 29.2211C23.1523 35.217 23.6501 36.4825 23.6267 36.5266C23.5987 36.5795 23.5439 36.58 17.8298 36.58H12.0613L12.033 36.5173C12.0086 36.4632 12.4066 35.4505 14.9113 29.1933C16.51 25.1996 17.8252 21.9404 17.8341 21.9505C17.843 21.9606 19.1564 25.2324 20.7527 29.2211Z" fill="#FFB800"/>
</svg>
