<svg width="54" height="54" viewBox="0 0 54 54" fill="none" xmlns="http://www.w3.org/2000/svg">
<circle cx="27" cy="27" r="27" fill="#6D81AE"/>
<circle cx="27" cy="26.9998" r="23.22" fill="#8899BD"/>
<path fill-rule="evenodd" clip-rule="evenodd" d="M26.3038 14.0153C25.9467 14.032 25.2657 14.1094 24.8234 14.1835C21.9462 14.6658 19.3194 16.1072 17.34 18.2897C15.6847 20.1149 14.5722 22.4107 14.1704 24.8311C14.0289 25.6837 13.9999 26.052 14 27.0002C14.0001 27.9444 14.0311 28.3412 14.1696 29.167C15.0175 34.2242 18.7975 38.3279 23.7745 39.5947C27.593 40.5665 31.6119 39.7713 34.7741 37.4182C35.7075 36.7236 36.6981 35.7347 37.4081 34.7889C39.5838 31.8901 40.4446 28.1988 39.7813 24.6118C39.426 22.6907 38.5946 20.7946 37.4192 19.2248C36.8673 18.4877 35.9436 17.5191 35.2653 16.9662C32.7062 14.8799 29.6107 13.8607 26.3038 14.0153ZM28.3975 16.2503C32.011 16.7453 35.0798 18.9375 36.7075 22.1867C37.2469 23.2634 37.601 24.4431 37.766 25.7132C37.8354 26.2471 37.8354 27.7534 37.766 28.2873C37.4675 30.5839 36.5482 32.5858 35.0083 34.2923C33.4534 36.0154 31.321 37.2075 28.9989 37.6515C28.2752 37.7899 27.9774 37.8141 26.9941 37.8141C26.2625 37.8141 26.0032 37.8043 25.7063 37.7658C23.3986 37.4662 21.3827 36.5375 19.673 34.9864C18.719 34.1208 17.8774 33.0046 17.2808 31.8137C16.7413 30.7368 16.3867 29.5554 16.2224 28.2873C16.1614 27.8164 16.1533 26.2802 16.2095 25.8193C16.4635 23.7345 17.2415 21.8465 18.4911 20.2824C19.5052 19.013 20.7388 18.0126 22.1778 17.2926C23.2916 16.7353 24.6204 16.3461 25.8126 16.2282C25.9732 16.2123 26.1405 16.1945 26.1843 16.1886C26.2281 16.1828 26.6523 16.1817 27.1269 16.1862C27.8228 16.1929 28.0688 16.2053 28.3975 16.2503ZM25.9055 17.7918V18.3226H26.9941H28.0828V17.7918V17.2611H26.9941H25.9055V17.7918ZM31.111 19.4396C30.9248 19.4761 30.7103 19.5945 30.5614 19.7431C30.4345 19.8698 30.288 20.1524 28.5616 23.6021L26.6988 27.3244L26.3619 26.9966C26.1766 26.8164 25.6577 26.3046 25.2089 25.8593C24.3212 24.9788 24.2206 24.9011 23.9002 24.8503C23.443 24.7778 22.9649 25.0344 22.7632 25.4606C22.6179 25.7677 22.6351 26.1741 22.806 26.4695C22.8706 26.5811 26.2184 29.9447 26.3702 30.0504C26.4286 30.0911 26.5507 30.1514 26.6416 30.1844C26.7798 30.2345 26.8454 30.2425 27.0432 30.233C27.2432 30.2234 27.3069 30.2083 27.4563 30.1348C27.8332 29.9494 27.6497 30.2794 30.1127 25.3574C31.3307 22.9234 32.3476 20.8619 32.3725 20.7763C32.4719 20.4345 32.3732 20.0448 32.1181 19.7723C31.8428 19.4781 31.4971 19.3639 31.111 19.4396ZM17.2493 26.4562V27.0002H18.3247H19.4001V26.4562V25.9122H18.3247H17.2493V26.4562ZM34.5882 26.4562V27.0002H35.6636H36.739V26.4562V25.9122H35.6636H34.5882V26.4562ZM25.9116 35.1272L25.9188 35.6646H26.9941H28.0695L28.0767 35.1272L28.0839 34.5898H26.9941H25.9044L25.9116 35.1272Z" fill="#FFB800"/>
</svg>
