<svg width="54" height="54" viewBox="0 0 54 54" fill="none" xmlns="http://www.w3.org/2000/svg">
<circle cx="27" cy="27" r="27" fill="#6D81AE"/>
<circle cx="27" cy="26.9998" r="23.22" fill="#8899BD"/>
<path fill-rule="evenodd" clip-rule="evenodd" d="M24.1001 14.0851C22.603 14.392 21.4115 15.7039 21.1533 17.3298C21.0727 17.8375 21.0819 17.952 21.2326 18.3074C21.4176 18.7438 21.8055 19.0107 22.2559 19.0114C22.586 19.0118 23.0215 19.3023 23.1842 19.6304C23.3878 20.0413 23.3659 21.3035 23.1488 21.6751C22.8778 22.139 22.6326 22.2158 21.2975 22.2556C20.2228 22.2875 20.0423 22.3164 19.6088 22.5256C19.019 22.8103 18.5255 23.308 18.2427 23.9032L18.0315 24.3479L18.0081 31.7707C17.9875 38.3096 18.0004 39.2254 18.117 39.4606C18.3971 40.0259 17.9904 39.9998 26.4974 39.9998C35.0142 39.9998 34.5706 40.0291 34.8648 39.4461C35.0054 39.1675 35.0138 38.6567 34.9893 31.7478L34.9633 24.3479L34.752 23.9032C34.4694 23.3081 33.9759 22.8104 33.386 22.5253C32.9488 22.314 32.7768 22.2871 31.6543 22.2551C30.2857 22.216 30.0679 22.1399 29.8051 21.6096C29.6293 21.2547 29.6328 19.9892 29.8106 19.6304C29.977 19.2945 30.4109 19.0118 30.7606 19.0114C31.1225 19.0109 31.5779 18.6762 31.7685 18.2704C31.9047 17.9805 31.9139 17.8569 31.8375 17.3442C31.5891 15.6788 30.4018 14.3912 28.8274 14.0796C28.2759 13.9705 24.6388 13.9747 24.1001 14.0851ZM26.3914 30.4696L26.3685 32.7793H25.9817H25.5949L25.572 30.4696L25.549 28.16H25.9817H26.4144L26.3914 30.4696ZM24.0049 30.3628V32.0169H24.4346H24.8644V32.3756V32.7344H23.5852C22.3782 32.7344 22.3034 32.7243 22.261 32.555C22.1603 32.153 22.2778 32.0169 22.7257 32.0169H23.1454V30.9405C23.1454 30.3485 23.1248 29.8642 23.0997 29.8642C23.0745 29.8642 22.9151 29.9247 22.7454 29.9987C22.5756 30.0727 22.4232 30.1333 22.4066 30.1333C22.3419 30.1333 22.1052 29.5779 22.1329 29.4911C22.1703 29.374 23.8462 28.6064 23.9369 28.6648C23.9743 28.689 24.0049 29.453 24.0049 30.3628ZM30.7707 29.6139C30.9866 29.7263 31.0514 29.7282 31.1849 29.6263C31.3963 29.465 31.7336 29.4726 31.7952 29.6401C31.8921 29.9037 31.7494 30.2229 31.5347 30.2229C31.3561 30.2229 31.3335 30.263 31.3412 30.5662C31.3584 31.2504 30.8988 31.6637 30.0345 31.7413C29.5363 31.786 29.4626 31.8158 29.4626 31.972C29.4626 32.1362 29.5345 32.1553 30.3082 32.197C31.1313 32.2413 31.1606 32.2503 31.4041 32.5348C31.773 32.9657 31.7496 33.3736 31.331 33.8105C30.6472 34.524 28.9947 34.5082 28.6625 33.7849C28.5199 33.4746 28.6571 32.962 28.9224 32.8138C29.0202 32.7592 29.0612 32.6894 29.0144 32.6576C28.7167 32.4549 28.6955 31.9623 28.9704 31.6357C29.0897 31.4939 29.0877 31.4616 28.9501 31.303C28.7314 31.0508 28.6807 30.4073 28.8523 30.061C29.1433 29.4737 30.0814 29.2551 30.7707 29.6139ZM27.8367 30.2682L27.4415 31.0309L27.8772 31.8375C28.1168 32.2811 28.2889 32.6845 28.2595 32.7341C28.1981 32.8377 27.6189 32.8535 27.4751 32.7555C27.422 32.7193 27.1852 32.3263 26.949 31.8823L26.5193 31.0751L26.896 30.2902L27.2726 29.5054H27.7523H28.2319L27.8367 30.2682ZM29.7313 30.1796C29.5583 30.3602 29.5485 30.8812 29.7153 31.0257C29.9216 31.2044 30.3023 31.1019 30.4483 30.8284C30.5665 30.6068 30.5665 30.5566 30.4483 30.3351C30.2926 30.0433 29.9359 29.966 29.7313 30.1796ZM29.4246 33.0835C29.3074 33.3121 29.3086 33.3233 29.4687 33.4905C29.6482 33.6777 30.3513 33.6763 30.6086 33.4881C30.7315 33.3984 30.7947 33.2729 30.7782 33.1518C30.7544 32.9774 30.6918 32.9561 30.1337 32.9324C29.5913 32.9094 29.5044 32.9279 29.4246 33.0835Z" fill="#FFB800"/>
</svg>
