<svg width="9" height="38" viewBox="0 0 9 38" fill="none" xmlns="http://www.w3.org/2000/svg">
<path d="M7.68857 24.9335H1.41429L0.102857 0H9L7.68857 24.9335ZM0 33.6615C0 32.2324 0.385714 31.152 1.15714 30.4204C1.92857 29.6888 3.05143 29.323 4.52571 29.323C5.94857 29.323 7.04571 29.6973 7.81714 30.4459C8.60571 31.1945 9 32.2664 9 33.6615C9 35.0056 8.60571 36.069 7.81714 36.8516C7.02857 37.6172 5.93143 38 4.52571 38C3.08571 38 1.97143 37.6257 1.18286 36.8771C0.394286 36.1115 0 35.0396 0 33.6615Z" fill="#075157"/>
</svg>
