<svg width="54" height="54" viewBox="0 0 54 54" fill="none" xmlns="http://www.w3.org/2000/svg">
<circle cx="27" cy="27" r="27" fill="#6D81AE"/>
<circle cx="27" cy="26.9998" r="23.22" fill="#8899BD"/>
<path d="M26.1789 16.1924H23.6558V14.7619H26.1789V12.2144H27.6067V14.7619H30.1298V16.1924H27.6067V18.7073H26.1789V16.1924Z" fill="#FFB800"/>
<path d="M17.3747 20.5713L15.4101 25.0741C15.1638 25.6402 14.932 26.0467 14.7147 26.2934C14.5003 26.5402 14.2453 26.7246 13.9497 26.8465C13.6541 26.9655 13.2948 27.025 12.8718 27.025C12.5096 27.025 12.172 26.9815 11.8591 26.8944V25.736C12.1141 25.8405 12.4313 25.8928 12.8109 25.8928C13.0514 25.8928 13.2456 25.8376 13.3934 25.7273C13.5411 25.6141 13.6643 25.4196 13.7628 25.1438L11.5635 20.5713H12.9891L14.5539 24.1204H14.5973L14.6756 23.9027L15.9882 20.5713H17.3747Z" fill="white"/>
<path d="M20.0478 27.025C18.5352 27.025 17.7789 26.1933 17.7789 24.5298C17.7789 23.7024 17.9847 23.0709 18.3961 22.6354C18.8076 22.1971 19.3973 21.9779 20.1651 21.9779C20.7273 21.9779 21.2315 22.0882 21.6777 22.3088L21.2865 23.3366C21.0779 23.2524 20.8837 23.1841 20.7041 23.1319C20.5244 23.0767 20.3448 23.0491 20.1651 23.0491C19.4755 23.0491 19.1307 23.5398 19.1307 24.521C19.1307 25.4733 19.4755 25.9494 20.1651 25.9494C20.4201 25.9494 20.6563 25.916 20.8736 25.8492C21.0909 25.7796 21.3082 25.6722 21.5256 25.527V26.6636C21.3111 26.8 21.0938 26.8944 20.8736 26.9466C20.6563 26.9989 20.381 27.025 20.0478 27.025Z" fill="white"/>
<path d="M27.0064 26.9379H25.6808V23.0666H24.4594C24.3667 24.1552 24.2537 24.9681 24.1204 25.5052C23.9871 26.0394 23.8089 26.427 23.5858 26.6679C23.3656 26.906 23.0758 27.025 22.7165 27.025C22.4094 27.025 22.1573 26.9786 21.9602 26.8857V25.8231C22.1022 25.8812 22.2442 25.9102 22.3862 25.9102C22.5513 25.9102 22.689 25.7912 22.7991 25.5531C22.9121 25.3151 23.0121 24.9188 23.099 24.3643C23.1888 23.8069 23.2656 23.0419 23.3294 22.0693H27.0064V26.9379Z" fill="white"/>
<path d="M27.7062 22.0693H29.1579L30.075 24.8085C30.1533 25.0465 30.2069 25.3281 30.2359 25.6533H30.2619C30.2938 25.3543 30.3561 25.0727 30.4488 24.8085L31.3486 22.0693H32.7698L30.714 27.5607C30.5256 28.0687 30.2561 28.449 29.9055 28.7016C29.5578 28.9542 29.1507 29.0805 28.6842 29.0805C28.4553 29.0805 28.2307 29.0558 28.0105 29.0064V27.9526C28.1698 27.9903 28.3437 28.0092 28.5321 28.0092C28.7668 28.0092 28.971 27.9366 29.1449 27.7915C29.3217 27.6492 29.4593 27.4329 29.5578 27.1426L29.6361 26.9031L27.7062 22.0693Z" fill="white"/>
<path d="M36.8251 22.0693V23.0666H34.7953V26.9379H33.4696V22.0693H36.8251Z" fill="white"/>
<path d="M40.8151 26.9379L40.5587 26.276H40.5239C40.3008 26.5576 40.0704 26.7536 39.8328 26.8639C39.5981 26.9713 39.291 27.025 38.9114 27.025C38.4449 27.025 38.0769 26.8915 37.8074 26.6244C37.5408 26.3573 37.4075 25.977 37.4075 25.4834C37.4075 24.9667 37.5872 24.5864 37.9465 24.3425C38.3087 24.0957 38.8534 23.9593 39.5807 23.9332L40.424 23.907V23.6936C40.424 23.2001 40.1719 22.9533 39.6677 22.9533C39.2794 22.9533 38.823 23.0709 38.2985 23.3061L37.8595 22.409C38.4188 22.1158 39.0389 21.9692 39.7198 21.9692C40.3718 21.9692 40.8716 22.1114 41.2194 22.3959C41.5671 22.6804 41.7409 23.113 41.7409 23.6936V26.9379H40.8151ZM40.424 24.6822L39.9111 24.6996C39.5257 24.7112 39.2388 24.7809 39.0505 24.9086C38.8621 25.0364 38.768 25.2309 38.768 25.4922C38.768 25.8667 38.9824 26.0539 39.4112 26.0539C39.7184 26.0539 39.9632 25.9654 40.1458 25.7883C40.3312 25.6112 40.424 25.376 40.424 25.0828V24.6822Z" fill="white"/>
<path d="M14.7712 35.3853C14.7712 35.6466 14.6886 35.8701 14.5234 36.0559C14.3612 36.2388 14.1207 36.3564 13.8019 36.4086V36.4435C14.1467 36.4841 14.4191 36.6032 14.6191 36.8006C14.8219 36.9951 14.9233 37.2361 14.9233 37.5235C14.9233 37.9967 14.7379 38.3581 14.367 38.6078C13.9961 38.8546 13.4658 38.978 12.7762 38.978H10.2856V34.1093H12.7762C13.4426 34.1093 13.941 34.2182 14.2713 34.4359C14.6046 34.6508 14.7712 34.9672 14.7712 35.3853ZM13.5498 37.4538C13.5498 37.2622 13.4759 37.1243 13.3282 37.0401C13.1804 36.953 12.9587 36.9094 12.6632 36.9094H11.6113V38.0591H12.6892C12.9703 38.0591 13.1833 38.0068 13.3282 37.9023C13.4759 37.7949 13.5498 37.6454 13.5498 37.4538ZM13.4281 35.4898C13.4281 35.1937 13.1934 35.0456 12.724 35.0456H11.6113V36.008H12.5719C12.8529 36.008 13.0659 35.9674 13.2108 35.8861C13.3557 35.8048 13.4281 35.6727 13.4281 35.4898Z" fill="white"/>
<path d="M17.3052 35.9906H17.9441C18.6859 35.9906 19.235 36.1096 19.5914 36.3477C19.9478 36.5857 20.126 36.9457 20.126 37.4277C20.126 37.9415 19.9478 38.3291 19.5914 38.5904C19.235 38.8488 18.7018 38.978 17.9919 38.978H15.9795V34.1093H17.3052V35.9906ZM18.8003 37.4451C18.8003 37.2564 18.725 37.1199 18.5743 37.0357C18.4237 36.9515 18.1991 36.9094 17.9006 36.9094H17.3052V38.0591H17.918C18.5062 38.0591 18.8003 37.8544 18.8003 37.4451ZM22.1558 38.978H20.8301V34.1093H22.1558V38.978Z" fill="white"/>
<path d="M28.0366 35.3853C28.0366 35.6466 27.954 35.8701 27.7888 36.0559C27.6265 36.2388 27.386 36.3564 27.0673 36.4086V36.4435C27.4121 36.4841 27.6845 36.6032 27.8844 36.8006C28.0873 36.9951 28.1887 37.2361 28.1887 37.5235C28.1887 37.9967 28.0032 38.3581 27.6323 38.6078C27.2614 38.8546 26.7312 38.978 26.0415 38.978H23.551V34.1093H26.0415C26.708 34.1093 27.2064 34.2182 27.5367 34.4359C27.8699 34.6508 28.0366 34.9672 28.0366 35.3853ZM26.8152 37.4538C26.8152 37.2622 26.7413 37.1243 26.5935 37.0401C26.4458 36.953 26.2241 36.9094 25.9285 36.9094H24.8767V38.0591H25.9546C26.2357 38.0591 26.4487 38.0068 26.5935 37.9023C26.7413 37.7949 26.8152 37.6454 26.8152 37.4538ZM26.6935 35.4898C26.6935 35.1937 26.4588 35.0456 25.9894 35.0456H24.8767V36.008H25.8373C26.1183 36.008 26.3313 35.9674 26.4762 35.8861C26.6211 35.8048 26.6935 35.6727 26.6935 35.4898Z" fill="white"/>
<path d="M30.3011 36.5349C30.3011 37.0169 30.3793 37.3812 30.5358 37.628C30.6951 37.8748 30.953 37.9981 31.3094 37.9981C31.6629 37.9981 31.9165 37.8762 32.0701 37.6323C32.2265 37.3856 32.3048 37.0198 32.3048 36.5349C32.3048 36.053 32.2265 35.6916 32.0701 35.4506C31.9136 35.2096 31.6572 35.0892 31.3007 35.0892C30.9472 35.0892 30.6922 35.2096 30.5358 35.4506C30.3793 35.6887 30.3011 36.0501 30.3011 36.5349ZM33.6609 36.5349C33.6609 37.3275 33.4522 37.9473 33.035 38.3944C32.6177 38.8415 32.0367 39.065 31.2921 39.065C30.8255 39.065 30.4141 38.9634 30.0577 38.7602C29.7013 38.5541 29.4274 38.2594 29.2362 37.8762C29.0449 37.493 28.9493 37.0459 28.9493 36.5349C28.9493 35.7395 29.1565 35.1211 29.5709 34.6798C29.9852 34.2385 30.5676 34.0179 31.3181 34.0179C31.7847 34.0179 32.1961 34.1195 32.5525 34.3227C32.9089 34.5259 33.1828 34.8177 33.374 35.198C33.5652 35.5783 33.6609 36.024 33.6609 36.5349Z" fill="white"/>
<path d="M35.9645 35.9819C36.4658 35.9819 36.8207 35.9412 37.0294 35.86C37.2409 35.7787 37.3467 35.6495 37.3467 35.4724C37.3467 35.3156 37.2699 35.198 37.1163 35.1196C36.9627 35.0413 36.7092 35.0021 36.3557 35.0021C36.1326 35.0021 35.879 35.0296 35.595 35.0848C35.314 35.14 35.0575 35.2154 34.8257 35.3113L34.4345 34.3837C34.7794 34.253 35.114 34.1601 35.4386 34.105C35.7631 34.0469 36.1253 34.0179 36.5252 34.0179C37.1308 34.0179 37.6161 34.134 37.9812 34.3663C38.3463 34.5985 38.5289 34.9135 38.5289 35.3113C38.5289 35.86 38.2058 36.217 37.5596 36.3825V36.4261C37.9566 36.5248 38.2391 36.6656 38.4072 36.8485C38.5782 37.0285 38.6636 37.2651 38.6636 37.5583C38.6636 37.8544 38.568 38.1172 38.3768 38.3465C38.1855 38.5759 37.9088 38.753 37.5466 38.8778C37.1844 39.0026 36.7584 39.065 36.2687 39.065C35.4574 39.065 34.8344 38.9649 34.3998 38.7646V37.6672C34.649 37.7833 34.9213 37.8748 35.2169 37.9415C35.5154 38.0083 35.8037 38.0417 36.0818 38.0417C36.5136 38.0417 36.8367 37.9938 37.0511 37.898C37.2655 37.7993 37.3727 37.6599 37.3727 37.4799C37.3727 37.2825 37.2597 37.1373 37.0337 37.0444C36.8077 36.9486 36.46 36.9007 35.9906 36.9007H35.4777V35.9819H35.9645Z" fill="white"/>
<path d="M42.7884 38.978L42.532 38.316H42.4972C42.2741 38.5976 42.0437 38.7936 41.8061 38.9039C41.5714 39.0113 41.2643 39.065 40.8847 39.065C40.4182 39.065 40.0502 38.9315 39.7807 38.6644C39.5141 38.3973 39.3808 38.017 39.3808 37.5235C39.3808 37.0067 39.5605 36.6264 39.9198 36.3825C40.282 36.1358 40.8267 35.9993 41.554 35.9732L42.3972 35.947V35.7337C42.3972 35.2401 42.1451 34.9934 41.641 34.9934C41.2527 34.9934 40.7963 35.1109 40.2718 35.3461L39.8328 34.449C40.3921 34.1558 41.0122 34.0092 41.6931 34.0092C42.3451 34.0092 42.8449 34.1514 43.1926 34.4359C43.5404 34.7205 43.7142 35.153 43.7142 35.7337V38.978H42.7884ZM42.3972 36.7222L41.8844 36.7396C41.499 36.7512 41.2121 36.8209 41.0238 36.9486C40.8354 37.0764 40.7412 37.2709 40.7412 37.5322C40.7412 37.9067 40.9557 38.0939 41.3845 38.0939C41.6917 38.0939 41.9365 38.0054 42.1191 37.8283C42.3045 37.6512 42.3972 37.416 42.3972 37.1228V36.7222Z" fill="white"/>
</svg>
