<svg width="110" height="110" viewBox="0 0 110 110" fill="none" xmlns="http://www.w3.org/2000/svg">
<circle cx="55" cy="55" r="55" fill="#5B6FA3"/>
<circle cx="55" cy="55" r="45" fill="#FFB800"/>
<path d="M28.845 75.9813V33.2307L58.2871 26.5806V83.1064L28.845 75.9813Z" fill="#307B34"/>
<path d="M80.9994 34.1809H58.2869V75.5065H80.9994V34.1809Z" fill="#EAEAEA"/>
<path fill-rule="evenodd" clip-rule="evenodd" d="M51.0567 45.3944C51.6125 45.869 51.7224 46.7627 51.3021 47.3905L45.2344 56.4536L51.2402 64.1115C51.7023 64.7006 51.6539 65.6013 51.1323 66.1231C50.6106 66.6449 49.8131 66.5903 49.3511 66.0012L43.6819 58.7725L38.2635 66.8658C37.8432 67.4935 37.0519 67.6177 36.496 67.143C35.9401 66.6684 35.8302 65.7747 36.2505 65.1469L41.9751 56.5963L36.3124 49.3759C35.8504 48.7868 35.8987 47.8862 36.4204 47.3643C36.942 46.8425 37.7395 46.8971 38.2016 47.4862L43.5276 54.2774L49.2892 45.6716C49.7095 45.0438 50.5008 44.9197 51.0567 45.3944Z" fill="white"/>
<path fill-rule="evenodd" clip-rule="evenodd" d="M55.3428 43.6799C55.3428 42.8929 55.9077 42.2549 56.6046 42.2549H63.7548C64.4517 42.2549 65.0166 42.8929 65.0166 43.6799C65.0166 44.4669 64.4517 45.1049 63.7548 45.1049H56.6046C55.9077 45.1049 55.3428 44.4669 55.3428 43.6799ZM66.699 43.6799C66.699 42.8929 67.264 42.2549 67.9608 42.2549H73.8493C74.5461 42.2549 75.1111 42.8929 75.1111 43.6799C75.1111 44.4669 74.5461 45.1049 73.8493 45.1049H67.9608C67.264 45.1049 66.699 44.4669 66.699 43.6799ZM55.3428 50.805C55.3428 50.018 55.9077 49.38 56.6046 49.38H63.7548C64.4517 49.38 65.0166 50.018 65.0166 50.805C65.0166 51.592 64.4517 52.23 63.7548 52.23H56.6046C55.9077 52.23 55.3428 51.592 55.3428 50.805ZM66.699 50.805C66.699 50.018 67.264 49.38 67.9608 49.38H73.8493C74.5461 49.38 75.1111 50.018 75.1111 50.805C75.1111 51.592 74.5461 52.23 73.8493 52.23H67.9608C67.264 52.23 66.699 51.592 66.699 50.805ZM55.3428 58.4051C55.3428 57.6181 55.9077 56.9801 56.6046 56.9801H63.7548C64.4517 56.9801 65.0166 57.6181 65.0166 58.4051C65.0166 59.1921 64.4517 59.8301 63.7548 59.8301H56.6046C55.9077 59.8301 55.3428 59.1921 55.3428 58.4051ZM66.699 58.4051C66.699 57.6181 67.264 56.9801 67.9608 56.9801H73.8493C74.5461 56.9801 75.1111 57.6181 75.1111 58.4051C75.1111 59.1921 74.5461 59.8301 73.8493 59.8301H67.9608C67.264 59.8301 66.699 59.1921 66.699 58.4051ZM55.3428 66.0052C55.3428 65.2182 55.9077 64.5802 56.6046 64.5802H63.7548C64.4517 64.5802 65.0166 65.2182 65.0166 66.0052C65.0166 66.7922 64.4517 67.4302 63.7548 67.4302H56.6046C55.9077 67.4302 55.3428 66.7922 55.3428 66.0052ZM66.699 66.0052C66.699 65.2182 67.264 64.5802 67.9608 64.5802H73.8493C74.5461 64.5802 75.1111 65.2182 75.1111 66.0052C75.1111 66.7922 74.5461 67.4302 73.8493 67.4302H67.9608C67.264 67.4302 66.699 66.7922 66.699 66.0052Z" fill="#307B34"/>
</svg>
