<svg width="207" height="55" viewBox="0 0 207 55" fill="none" xmlns="http://www.w3.org/2000/svg">
<path fill-rule="evenodd" clip-rule="evenodd" d="M51.6154 40.2466V29.6031L25.7158 44.3625L8.09992 34.3235L24.0084 25.2578L27.1612 27.0546L38.2364 20.743C34.0627 18.3646 30.0733 15.8921 25.8996 13.5138L0 28.2623V40.3513C8.57183 45.2362 17.3277 50.1151 25.8996 55C34.4453 50.0378 43.0281 45.1376 51.6154 40.2466ZM0 14.7534V25.3969L25.8999 10.6375L43.5158 20.6765L27.607 29.7422L24.4542 27.9454L13.379 34.257C17.5527 36.6354 21.5421 39.1079 25.7158 41.4862L51.6154 26.7377V14.6487C43.0435 9.76377 34.2877 4.88491 25.7158 0C17.1704 4.96222 8.58731 9.8624 0 14.7534Z" fill="url(#paint0_linear)"/>
<path d="M79.5386 36.3848H74.6855V27.9047H67.4963V36.3848H62.6155V16.0771H67.4963V24.1389H74.6855V16.0771H79.5386V36.3848Z" fill="black"/>
<path d="M96.78 27.7787H89.344V32.6185H98.1271V36.3844H84.6156V16.0767H98.1541V19.8565H89.344V24.1384H96.78V27.7787Z" fill="black"/>
<path d="M101.539 36.3844V16.0767H108.6C111.13 16.0767 113.052 16.5555 114.366 17.5133C115.689 18.471 116.351 19.8611 116.351 21.6836C116.351 22.7343 116.117 23.6316 115.649 24.3755C115.181 25.1193 114.492 25.668 113.583 26.0213C114.609 26.3002 115.397 26.821 115.946 27.5834C116.495 28.3459 116.769 29.2757 116.769 30.3729C116.769 32.3628 116.157 33.8598 114.933 34.8641C113.718 35.859 111.913 36.3658 109.519 36.3844H101.539ZM106.278 27.7508V32.6185H109.384C110.239 32.6185 110.896 32.4186 111.355 32.0188C111.814 31.6096 112.044 31.0378 112.044 30.3032C112.044 28.6109 111.229 27.7601 109.6 27.7508H106.278ZM106.278 24.5428H108.749C109.784 24.5336 110.522 24.3383 110.963 23.957C111.404 23.5758 111.625 23.0133 111.625 22.2694C111.625 21.4139 111.386 20.8002 110.909 20.4283C110.432 20.0471 109.663 19.8565 108.6 19.8565H106.278V24.5428Z" fill="black"/>
<path d="M132.635 32.5906H126.249L125.133 36.3844H120.154L127.244 16.0767H131.626L138.769 36.3844H133.764L132.635 32.5906ZM127.364 28.8108H131.52L129.435 21.7673L127.364 28.8108Z" fill="black"/>
<path d="M159.077 16.0767V36.3844H154.276V19.8565H149.803L149.474 26.6768C149.338 29.0293 149.018 30.9076 148.517 32.3117C148.015 33.7157 147.299 34.7432 146.369 35.3941C145.448 36.0357 144.19 36.3658 142.594 36.3844H141.308V32.6185L141.978 32.5488C142.936 32.4093 143.629 31.8142 144.057 30.7635C144.486 29.7035 144.764 27.9228 144.892 25.4215L145.234 16.0767H159.077Z" fill="#00898A"/>
<path d="M181.077 26.6377C181.077 28.5653 180.71 30.2712 179.975 31.7554C179.241 33.2396 178.195 34.3844 176.837 35.1898C175.489 35.9862 173.95 36.3844 172.22 36.3844C170.491 36.3844 168.957 35.9997 167.618 35.2305C166.279 34.4522 165.233 33.3436 164.48 31.9047C163.736 30.4658 163.345 28.8142 163.308 26.95V25.8368C163.308 23.9002 163.671 22.1943 164.396 20.7192C165.13 19.235 166.176 18.0902 167.534 17.2848C168.901 16.4794 170.454 16.0767 172.193 16.0767C173.913 16.0767 175.447 16.4749 176.795 17.2712C178.144 18.0676 179.19 19.2034 179.933 20.6785C180.687 22.1445 181.068 23.8278 181.077 25.7282V26.6377ZM176.098 25.8097C176.098 23.8459 175.758 22.3572 175.08 21.3436C174.41 20.321 173.448 19.8097 172.193 19.8097C169.738 19.8097 168.441 21.6015 168.301 25.1853L168.287 26.6377C168.287 28.5744 168.617 30.0631 169.277 31.1038C169.938 32.1445 170.919 32.6649 172.22 32.6649C173.457 32.6649 174.41 32.1536 175.08 31.131C175.749 30.1083 176.089 28.6377 176.098 26.7192V25.8097Z" fill="#00898A"/>
<path d="M191.511 16.0767L195.885 30.2056L200.245 16.0767H206.462V36.3844H201.725V31.6422L202.183 21.9346L197.446 36.3844H194.324L189.574 21.9207L190.031 31.6422V36.3844H185.308V16.0767H191.511Z" fill="#00898A"/>
<path d="M62.6155 42.4381H68.8233V49.7975H67.7734V43.3066H63.66V49.7975H62.6155V42.4381Z" fill="#5B5B5B"/>
<path d="M70.5301 49.7975V42.4381H73.5074C74.0315 42.4381 74.4317 42.4616 74.7081 42.5084C75.0957 42.5687 75.4206 42.6841 75.6826 42.8548C75.9446 43.0221 76.1546 43.2581 76.3125 43.5626C76.4741 43.8672 76.5548 44.2018 76.5548 44.5666C76.5548 45.1925 76.3413 45.7229 75.9141 46.158C75.487 46.5897 74.7153 46.8056 73.599 46.8056H71.5746V49.7975H70.5301ZM71.5746 45.9371H73.6151C74.2899 45.9371 74.7691 45.82 75.0527 45.5857C75.3362 45.3514 75.478 45.0218 75.478 44.5968C75.478 44.2889 75.3937 44.0261 75.225 43.8086C75.0598 43.5877 74.8409 43.4421 74.5681 43.3719C74.3922 43.3284 74.0674 43.3066 73.5936 43.3066H71.5746V45.9371Z" fill="#5B5B5B"/>
<path d="M77.9008 42.4381H78.8484V48.2664L83.048 42.4381H84.0979V49.7975H83.1503V43.9843L78.9453 49.7975H77.9008V42.4381Z" fill="#5B5B5B"/>
<path d="M85.8316 49.7975V42.4381H91.5387V43.3066H86.8761V45.5606H91.2426V46.424H86.8761V48.929H91.7217V49.7975H85.8316Z" fill="#5B5B5B"/>
<path d="M93.1324 49.7975V42.4381H94.7045L96.5728 47.6489C96.7451 48.1342 96.8707 48.4973 96.9497 48.7383C97.0394 48.4705 97.1794 48.0773 97.3696 47.5586L99.2594 42.4381H100.665V49.7975H99.6578V43.6379L97.3642 49.7975H96.422L94.1392 43.5325V49.7975H93.1324Z" fill="#5B5B5B"/>
<path d="M105.386 49.7975V42.4381H106.959L108.827 47.6489C108.999 48.1342 109.125 48.4973 109.204 48.7383C109.294 48.4705 109.434 48.0773 109.624 47.5586L111.514 42.4381H112.919V49.7975H111.912V43.6379L109.618 49.7975H108.676L106.393 43.5325V49.7975H105.386Z" fill="#5B5B5B"/>
<path d="M114.626 49.7975V42.4381H120.333V43.3066H115.67V45.5606H120.037V46.424H115.67V48.929H120.516V49.7975H114.626Z" fill="#5B5B5B"/>
<path d="M123.967 49.7975V43.3066H121.366V42.4381H127.623V43.3066H125.011V49.7975H123.967Z" fill="#5B5B5B"/>
<path d="M127.467 49.7975L130.498 42.4381H131.623L134.853 49.7975H133.664L132.743 47.5686H129.442L128.576 49.7975H127.467ZM129.744 46.7754H132.42L131.596 44.7373C131.345 44.1182 131.158 43.6095 131.036 43.2112C130.936 43.6831 130.794 44.1516 130.611 44.6168L129.744 46.7754Z" fill="#5B5B5B"/>
<path d="M136.512 42.4381H141.454V49.7975H140.41V43.3066H137.556V47.0967C137.556 47.8665 137.517 48.4304 137.438 48.7885C137.362 49.1466 137.201 49.426 136.953 49.6268C136.706 49.8243 136.392 49.923 136.011 49.923C135.781 49.923 135.505 49.8828 135.182 49.8025L135.36 48.9391C135.532 49.006 135.679 49.0395 135.801 49.0395C136.038 49.0395 136.216 48.9575 136.334 48.7935C136.453 48.6262 136.512 48.2346 136.512 47.6188V42.4381Z" fill="#5B5B5B"/>
<path d="M143.748 42.4381H148.691V49.7975H147.646V43.3066H144.792V47.0967C144.792 47.8665 144.753 48.4304 144.674 48.7885C144.599 49.1466 144.437 49.426 144.189 49.6268C143.942 49.8243 143.628 49.923 143.247 49.923C143.018 49.923 142.741 49.8828 142.418 49.8025L142.596 48.9391C142.768 49.006 142.915 49.0395 143.037 49.0395C143.274 49.0395 143.452 48.9575 143.57 48.7935C143.689 48.6262 143.748 48.2346 143.748 47.6188V42.4381Z" fill="#5B5B5B"/>
<path d="M150.09 46.2132C150.09 44.9917 150.442 44.0362 151.146 43.3468C151.849 42.654 152.757 42.3076 153.87 42.3076C154.599 42.3076 155.255 42.4699 155.841 42.7946C156.426 43.1192 156.871 43.5727 157.176 44.155C157.484 44.734 157.639 45.3916 157.639 46.1279C157.639 46.8742 157.477 47.5418 157.154 48.1309C156.831 48.7199 156.374 49.1667 155.781 49.4712C155.189 49.7724 154.55 49.923 153.865 49.923C153.122 49.923 152.458 49.7557 151.872 49.421C151.287 49.0863 150.844 48.6295 150.543 48.0505C150.241 47.4716 150.09 46.8591 150.09 46.2132ZM151.167 46.2283C151.167 47.1151 151.422 47.8146 151.932 48.3266C152.445 48.8353 153.088 49.0897 153.859 49.0897C154.645 49.0897 155.291 48.832 155.797 48.3166C156.307 47.8012 156.562 47.07 156.562 46.1228C156.562 45.5238 156.453 45.0017 156.234 44.5566C156.018 44.1081 155.701 43.7618 155.281 43.5174C154.864 43.2698 154.396 43.146 153.875 43.146C153.136 43.146 152.499 43.3836 151.964 43.8588C151.433 44.3307 151.167 45.1205 151.167 46.2283Z" fill="#5B5B5B"/>
<path d="M159.437 42.4381H164.38V49.7975H163.335V43.3066H160.482V47.0967C160.482 47.8665 160.442 48.4304 160.363 48.7885C160.288 49.1466 160.126 49.426 159.879 49.6268C159.631 49.8243 159.317 49.923 158.936 49.923C158.707 49.923 158.43 49.8828 158.107 49.8025L158.285 48.9391C158.457 49.006 158.604 49.0395 158.726 49.0395C158.963 49.0395 159.141 48.9575 159.259 48.7935C159.378 48.6262 159.437 48.2346 159.437 47.6188V42.4381Z" fill="#5B5B5B"/>
<path d="M165.78 46.2132C165.78 44.9917 166.131 44.0362 166.835 43.3468C167.538 42.654 168.446 42.3076 169.559 42.3076C170.288 42.3076 170.945 42.4699 171.53 42.7946C172.115 43.1192 172.56 43.5727 172.865 44.155C173.174 44.734 173.328 45.3916 173.328 46.1279C173.328 46.8742 173.166 47.5418 172.843 48.1309C172.52 48.7199 172.063 49.1667 171.47 49.4712C170.878 49.7724 170.239 49.923 169.554 49.923C168.811 49.923 168.147 49.7557 167.562 49.421C166.977 49.0863 166.533 48.6295 166.232 48.0505C165.93 47.4716 165.78 46.8591 165.78 46.2132ZM166.856 46.2283C166.856 47.1151 167.111 47.8146 167.621 48.3266C168.134 48.8353 168.777 49.0897 169.548 49.0897C170.334 49.0897 170.981 48.832 171.487 48.3166C171.996 47.8012 172.251 47.07 172.251 46.1228C172.251 45.5238 172.142 45.0017 171.923 44.5566C171.707 44.1081 171.39 43.7618 170.97 43.5174C170.553 43.2698 170.085 43.146 169.565 43.146C168.825 43.146 168.188 43.3836 167.653 43.8588C167.122 44.3307 166.856 45.1205 166.856 46.2283Z" fill="#5B5B5B"/>
<path d="M174.647 49.7975V42.4381H176.219L178.088 47.6489C178.26 48.1342 178.385 48.4973 178.464 48.7383C178.554 48.4705 178.694 48.0773 178.884 47.5586L180.774 42.4381H182.179V49.7975H181.173V43.6379L178.879 49.7975H177.937L175.654 43.5325V49.7975H174.647Z" fill="#5B5B5B"/>
<path d="M182.998 49.7975L186.029 42.4381H187.154L190.385 49.7975H189.195L188.274 47.5686H184.974L184.107 49.7975H182.998ZM185.275 46.7754H187.951L187.127 44.7373C186.876 44.1182 186.689 43.6095 186.567 43.2112C186.467 43.6831 186.325 44.1516 186.142 44.6168L185.275 46.7754Z" fill="#5B5B5B"/>
<path d="M62.6154 2.77211H67.7032V3.72679H63.6565V10.8621H62.6154V2.77211Z" fill="#5B5B5B"/>
<path d="M68.5565 10.8621V2.77211H71.5244C72.0468 2.77211 72.4457 2.79786 72.7212 2.84937C73.1077 2.91559 73.4315 3.04251 73.6926 3.23014C73.9538 3.41408 74.1631 3.67345 74.3206 4.00823C74.4816 4.34301 74.5621 4.71091 74.5621 5.11191C74.5621 5.79987 74.3492 6.38298 73.9234 6.86124C73.4977 7.33582 72.7284 7.57311 71.6157 7.57311H69.5977V10.8621H68.5565ZM69.5977 6.61843H71.6318C72.3044 6.61843 72.7821 6.48967 73.0647 6.23214C73.3474 5.97462 73.4887 5.61225 73.4887 5.14502C73.4887 4.80656 73.4046 4.51776 73.2365 4.27863C73.0719 4.03582 72.8536 3.87579 72.5817 3.79853C72.4064 3.75071 72.0826 3.72679 71.6103 3.72679H69.5977V6.61843Z" fill="#5B5B5B"/>
<path d="M74.8465 2.77211H75.8984L78.4638 7.72763L80.7072 2.77211H81.743L78.7912 9.06308C78.4227 9.85037 78.1203 10.3654 77.8842 10.6082C77.6481 10.851 77.3099 10.9724 76.8699 10.9724C76.6015 10.9724 76.2723 10.9081 75.8823 10.7793V9.86325C76.1614 10.0288 76.4566 10.1116 76.7679 10.1116C77.0219 10.1116 77.2402 10.0288 77.4226 9.86325C77.6087 9.69402 77.8126 9.31141 78.0345 8.71542L74.8465 2.77211Z" fill="#5B5B5B"/>
<path d="M82.6393 2.77211H88.8273V10.8621H87.7808V3.72679H83.6805V10.8621H82.6393V2.77211Z" fill="#5B5B5B"/>
<path d="M90.5394 2.77211H96.7274V10.8621H95.6809V3.72679H91.5805V10.8621H90.5394V2.77211Z" fill="#5B5B5B"/>
<path d="M97.5646 10.8621L100.586 2.77211H101.708L104.928 10.8621H103.742L102.824 8.41191H99.5343L98.6702 10.8621H97.5646ZM99.8348 7.54H102.502L101.681 5.29954C101.431 4.61893 101.245 4.05974 101.123 3.62194C101.023 4.14067 100.881 4.65572 100.699 5.16709L99.8348 7.54Z" fill="#5B5B5B"/>
<path d="M108.835 2.77211H109.876V6.31492C110.352 6.31492 110.687 6.22111 110.88 6.03348C111.073 5.84218 111.32 5.38599 111.621 4.66492C111.839 4.13515 112.018 3.76174 112.157 3.54469C112.3 3.32395 112.503 3.14 112.764 2.99285C113.025 2.84201 113.313 2.76659 113.628 2.76659C114.029 2.76659 114.24 2.77027 114.261 2.77763V3.70472C114.225 3.70472 114.156 3.70288 114.052 3.6992C113.937 3.69552 113.868 3.69368 113.842 3.69368C113.51 3.69368 113.263 3.77646 113.102 3.94201C112.937 4.10756 112.749 4.46074 112.538 5.00154C112.274 5.68582 112.05 6.1181 111.867 6.29837C111.685 6.47495 111.467 6.61659 111.213 6.72328C111.721 6.86676 112.222 7.3487 112.715 8.1691L114.336 10.8621H113.043L111.728 8.66576C111.367 8.05873 111.064 7.64301 110.821 7.4186C110.578 7.19051 110.263 7.07646 109.876 7.07646V10.8621H108.835V2.77211Z" fill="#5B5B5B"/>
<path d="M114.782 6.92194C114.782 5.57913 115.132 4.5288 115.834 3.77094C116.535 3.0094 117.44 2.62863 118.549 2.62863C119.276 2.62863 119.93 2.80706 120.514 3.16392C121.097 3.52077 121.54 4.01927 121.845 4.6594C122.152 5.29586 122.306 6.01877 122.306 6.82813C122.306 7.64853 122.145 8.38248 121.823 9.02997C121.501 9.67746 121.045 10.1686 120.454 10.5034C119.864 10.8345 119.227 11 118.544 11C117.803 11 117.141 10.8161 116.558 10.4482C115.975 10.0803 115.533 9.57813 115.232 8.94168C114.932 8.30522 114.782 7.63198 114.782 6.92194ZM115.855 6.9385C115.855 7.91342 116.109 8.68231 116.617 9.24519C117.129 9.80439 117.769 10.084 118.539 10.084C119.322 10.084 119.966 9.80071 120.471 9.23415C120.979 8.6676 121.233 7.86375 121.233 6.82261C121.233 6.16408 121.124 5.59017 120.905 5.10087C120.691 4.6079 120.374 4.22713 119.955 3.95857C119.54 3.68633 119.073 3.5502 118.555 3.5502C117.818 3.5502 117.182 3.81141 116.649 4.33382C116.12 4.85255 115.855 5.72077 115.855 6.9385Z" fill="#5B5B5B"/>
<path d="M123.621 10.8621V2.77211H125.188L127.05 8.5002C127.222 9.03365 127.347 9.43281 127.426 9.6977C127.516 9.40338 127.655 8.97111 127.845 8.40087L129.729 2.77211H131.129V10.8621H130.126V4.09101L127.839 10.8621H126.9L124.625 3.97512V10.8621H123.621Z" fill="#5B5B5B"/>
<path d="M132.82 2.77211H139.008V10.8621H137.961V3.72679H133.861V10.8621H132.82V2.77211Z" fill="#5B5B5B"/>
<path d="M139.845 10.8621L142.867 2.77211H143.988L147.209 10.8621H146.022L145.105 8.41191H141.815L140.951 10.8621H139.845ZM142.115 7.54H144.783L143.962 5.29954C143.711 4.61893 143.525 4.05974 143.403 3.62194C143.303 4.14067 143.162 4.65572 142.979 5.16709L142.115 7.54Z" fill="#5B5B5B"/>
<path d="M148.073 10.8621V2.77211H149.114V6.09418H153.203V2.77211H154.245V10.8621H153.203V7.04887H149.114V10.8621H148.073Z" fill="#5B5B5B"/>
<path d="M156 2.77211H156.944V9.17897L161.13 2.77211H162.177V10.8621H161.232V4.47178L157.041 10.8621H156V2.77211Z" fill="#5B5B5B"/>
<path d="M163.9 2.77211H164.844V9.17897L169.03 2.77211H170.077V10.8621H169.132V4.47178L164.941 10.8621H163.9V2.77211ZM167.812 0.846191H168.472C168.419 1.30606 168.254 1.65923 167.978 1.90572C167.707 2.15221 167.343 2.27546 166.889 2.27546C166.431 2.27546 166.064 2.15405 165.789 1.91124C165.517 1.66475 165.354 1.30974 165.3 0.846191H165.96C166.011 1.09636 166.109 1.28398 166.256 1.40907C166.406 1.53047 166.606 1.59117 166.857 1.59117C167.147 1.59117 167.365 1.53231 167.512 1.41459C167.662 1.29318 167.762 1.10372 167.812 0.846191Z" fill="#5B5B5B"/>
<defs>
<linearGradient id="paint0_linear" x1="12.8532" y1="7.41629" x2="38.2846" y2="47.884" gradientUnits="userSpaceOnUse">
<stop stop-color="#08565B"/>
<stop offset="0.141176" stop-color="#007479"/>
<stop offset="0.368627" stop-color="#68BAB6"/>
<stop offset="0.611765" stop-color="#68BAB6"/>
<stop offset="0.74902" stop-color="#007479"/>
<stop offset="1" stop-color="#08565B"/>
</linearGradient>
</defs>
</svg>
