<svg width="196" height="77" viewBox="0 0 196 77" fill="none" xmlns="http://www.w3.org/2000/svg">
<rect y="0.800049" width="196" height="76.0844" rx="8" fill="white"/>
<path fill-rule="evenodd" clip-rule="evenodd" d="M55.0916 49.7973V40.9951L33.6726 53.2012L19.1041 44.8989L32.2605 37.4015L34.8679 38.8874L44.0271 33.6677C40.5754 31.7008 37.2762 29.656 33.8245 27.6891L12.4055 39.8863V49.8839C19.4944 53.9237 26.7356 57.9586 33.8245 61.9984C40.8918 57.8946 47.9899 53.8422 55.0916 49.7973ZM12.4055 28.7143V37.5165L33.8248 25.3104L48.3932 33.6127L35.2366 41.1101L32.6291 39.6242L23.4699 44.8439C26.9216 46.8108 30.2208 48.8556 33.6726 50.8225L55.0916 38.6253V28.6277C48.0027 24.5879 40.7615 20.553 33.6726 16.5132C26.6055 20.617 19.5072 24.6694 12.4055 28.7143Z" fill="url(#paint0_linear)"/>
<path d="M78.1833 46.6039H74.1698V39.5908H68.2244V46.6039H64.1879V29.8093H68.2244V36.4764H74.1698V29.8093H78.1833V46.6039Z" fill="black"/>
<path d="M92.4415 39.4865H86.2918V43.489H93.5555V46.6034H82.3814V29.8088H93.5778V32.9347H86.2918V36.4759H92.4415V39.4865Z" fill="black"/>
<path d="M96.3766 46.6034V29.8088H102.217C104.309 29.8088 105.898 30.2049 106.985 30.9969C108.079 31.789 108.626 32.9386 108.626 34.4458C108.626 35.3147 108.433 36.0568 108.046 36.672C107.659 37.2872 107.089 37.7409 106.337 38.0331C107.186 38.2638 107.837 38.6944 108.291 39.325C108.745 39.9555 108.972 40.7245 108.972 41.6319C108.972 43.2775 108.466 44.5156 107.454 45.3461C106.449 46.1689 104.956 46.588 102.976 46.6034H96.3766ZM100.296 39.4634V43.489H102.864C103.572 43.489 104.115 43.3237 104.495 42.993C104.874 42.6547 105.064 42.1817 105.064 41.5742C105.064 40.1747 104.39 39.4711 103.043 39.4634H100.296ZM100.296 36.8104H102.34C103.196 36.8027 103.806 36.6412 104.171 36.326C104.536 36.0107 104.718 35.5454 104.718 34.9303C104.718 34.2228 104.521 33.7153 104.126 33.4077C103.732 33.0924 103.095 32.9347 102.217 32.9347H100.296V36.8104Z" fill="black"/>
<path d="M122.095 43.4659H116.813L115.89 46.6034H111.773L117.636 29.8088H121.26L127.168 46.6034H123.028L122.095 43.4659ZM117.735 40.34H121.172L119.448 34.515L117.735 40.34Z" fill="black"/>
<path d="M143.961 29.8088V46.6034H139.991V32.9347H136.291L136.02 38.5752C135.907 40.5207 135.643 42.0741 135.228 43.2352C134.813 44.3964 134.221 45.2461 133.452 45.7844C132.69 46.315 131.649 46.588 130.329 46.6034H129.266V43.489L129.82 43.4313C130.612 43.316 131.185 42.8238 131.54 41.9549C131.894 41.0783 132.124 39.6057 132.23 37.5371L132.513 29.8088H143.961Z" fill="#00898A"/>
<path d="M162.156 38.5429C162.156 40.137 161.852 41.5478 161.244 42.7752C160.637 44.0026 159.772 44.9494 158.649 45.6155C157.534 46.2741 156.261 46.6034 154.831 46.6034C153.401 46.6034 152.132 46.2853 151.025 45.6491C149.917 45.0055 149.052 44.0887 148.429 42.8987C147.814 41.7087 147.491 40.3429 147.46 38.8011V37.8805C147.46 36.2789 147.76 34.8682 148.36 33.6482C148.968 32.4208 149.833 31.4741 150.955 30.808C152.086 30.1419 153.37 29.8088 154.808 29.8088C156.231 29.8088 157.5 30.1381 158.615 30.7968C159.73 31.4554 160.595 32.3946 161.21 33.6146C161.833 34.827 162.148 36.2191 162.156 37.7907V38.5429ZM158.038 37.8581C158.038 36.234 157.757 35.0029 157.196 34.1646C156.642 33.3189 155.846 32.8961 154.808 32.8961C152.778 32.8961 151.705 34.3779 151.59 37.3417L151.578 38.5429C151.578 40.1445 151.851 41.3757 152.397 42.2364C152.943 43.097 153.755 43.5274 154.831 43.5274C155.854 43.5274 156.642 43.1045 157.196 42.2588C157.749 41.4131 158.03 40.1969 158.038 38.6103V37.8581Z" fill="#00898A"/>
<path d="M170.785 29.8088L174.402 41.4935L178.008 29.8088H183.149V46.6034H179.232V42.6816L179.61 34.6534L175.693 46.6034H173.111L169.183 34.6419L169.561 42.6816V46.6034H165.655V29.8088H170.785Z" fill="#00898A"/>
<path d="M64.1879 51.61H69.3218V57.6962H68.4535V52.3282H65.0517V57.6962H64.1879V51.61Z" fill="#5B5B5B"/>
<path d="M70.7333 57.6962V51.61H73.1956C73.629 51.61 73.9599 51.6294 74.1885 51.6681C74.5091 51.718 74.7777 51.8134 74.9944 51.9546C75.2111 52.093 75.3848 52.2881 75.5154 52.54C75.649 52.7918 75.7158 53.0686 75.7158 53.3703C75.7158 53.8879 75.5391 54.3265 75.1859 54.6863C74.8327 55.0434 74.1944 55.2219 73.2713 55.2219H71.5971V57.6962H70.7333ZM71.5971 54.5037H73.2846C73.8427 54.5037 74.239 54.4068 74.4735 54.2131C74.708 54.0193 74.8252 53.7467 74.8252 53.3952C74.8252 53.1406 74.7555 52.9233 74.616 52.7434C74.4794 52.5607 74.2983 52.4403 74.0727 52.3822C73.9273 52.3462 73.6586 52.3282 73.2668 52.3282H71.5971V54.5037Z" fill="#5B5B5B"/>
<path d="M76.8289 51.61H77.6126V56.43L81.0856 51.61H81.9539V57.6962H81.1702V52.8887L77.6927 57.6962H76.8289V51.61Z" fill="#5B5B5B"/>
<path d="M83.3877 57.6962V51.61H88.1075V52.3282H84.2515V54.1923H87.8626V54.9064H84.2515V56.978H88.2589V57.6962H83.3877Z" fill="#5B5B5B"/>
<path d="M89.4255 57.6962V51.61H90.7256L92.2707 55.9194C92.4132 56.3207 92.5171 56.621 92.5824 56.8203C92.6566 56.5988 92.7724 56.2736 92.9297 55.8446L94.4926 51.61H95.6547V57.6962H94.8221V52.6022L92.9252 57.6962H92.146L90.2581 52.5151V57.6962H89.4255Z" fill="#5B5B5B"/>
<path d="M99.5597 57.6962V51.61H100.86L102.405 55.9194C102.547 56.3207 102.651 56.621 102.717 56.8203C102.791 56.5988 102.907 56.2736 103.064 55.8446L104.627 51.61H105.789V57.6962H104.956V52.6022L103.059 57.6962H102.28L100.392 52.5151V57.6962H99.5597Z" fill="#5B5B5B"/>
<path d="M107.2 57.6962V51.61H111.92V52.3282H108.064V54.1923H111.675V54.9064H108.064V56.978H112.072V57.6962H107.2Z" fill="#5B5B5B"/>
<path d="M114.926 57.6962V52.3282H112.775V51.61H117.949V52.3282H115.79V57.6962H114.926Z" fill="#5B5B5B"/>
<path d="M117.82 57.6962L120.327 51.61H121.257L123.929 57.6962H122.945L122.184 55.8529H119.454L118.737 57.6962H117.82ZM119.703 55.197H121.916L121.235 53.5114C121.027 52.9994 120.873 52.5787 120.772 52.2494C120.689 52.6396 120.572 53.0271 120.42 53.4118L119.703 55.197Z" fill="#5B5B5B"/>
<path d="M125.3 51.61H129.388V57.6962H128.524V52.3282H126.164V55.4627C126.164 56.0993 126.132 56.5656 126.066 56.8618C126.004 57.1579 125.87 57.389 125.666 57.5551C125.461 57.7184 125.201 57.8 124.886 57.8C124.696 57.8 124.468 57.7668 124.201 57.7004L124.348 56.9863C124.49 57.0417 124.612 57.0694 124.713 57.0694C124.909 57.0694 125.056 57.0015 125.153 56.8659C125.251 56.7275 125.3 56.4037 125.3 55.8945V51.61Z" fill="#5B5B5B"/>
<path d="M131.285 51.61H135.372V57.6962H134.508V52.3282H132.149V55.4627C132.149 56.0993 132.116 56.5656 132.051 56.8618C131.988 57.1579 131.855 57.389 131.65 57.5551C131.445 57.7184 131.185 57.8 130.871 57.8C130.681 57.8 130.452 57.7668 130.185 57.7004L130.332 56.9863C130.474 57.0417 130.596 57.0694 130.697 57.0694C130.893 57.0694 131.04 57.0015 131.138 56.8659C131.236 56.7275 131.285 56.4037 131.285 55.8945V51.61Z" fill="#5B5B5B"/>
<path d="M136.53 54.732C136.53 53.7218 136.821 52.9316 137.403 52.3615C137.985 51.7885 138.736 51.5021 139.656 51.5021C140.258 51.5021 140.802 51.6363 141.285 51.9048C141.769 52.1732 142.137 52.5483 142.39 53.0299C142.645 53.5087 142.773 54.0525 142.773 54.6614C142.773 55.2786 142.639 55.8308 142.372 56.3179C142.105 56.805 141.726 57.1745 141.236 57.4264C140.747 57.6755 140.218 57.8 139.651 57.8C139.037 57.8 138.488 57.6616 138.004 57.3849C137.52 57.1081 137.153 56.7303 136.904 56.2515C136.655 55.7727 136.53 55.2662 136.53 54.732ZM137.421 54.7445C137.421 55.4779 137.631 56.0564 138.053 56.4798C138.477 56.9005 139.009 57.1109 139.647 57.1109C140.297 57.1109 140.831 56.8978 141.25 56.4715C141.671 56.0453 141.882 55.4405 141.882 54.6573C141.882 54.1619 141.792 53.7301 141.61 53.362C141.432 52.9911 141.17 52.7047 140.822 52.5026C140.478 52.2978 140.091 52.1954 139.66 52.1954C139.049 52.1954 138.522 52.3919 138.079 52.7849C137.64 53.1752 137.421 53.8283 137.421 54.7445Z" fill="#5B5B5B"/>
<path d="M144.26 51.61H148.347V57.6962H147.483V52.3282H145.124V55.4627C145.124 56.0993 145.091 56.5656 145.026 56.8618C144.963 57.1579 144.83 57.389 144.625 57.5551C144.42 57.7184 144.16 57.8 143.846 57.8C143.656 57.8 143.427 57.7668 143.16 57.7004L143.307 56.9863C143.449 57.0417 143.571 57.0694 143.672 57.0694C143.868 57.0694 144.015 57.0015 144.113 56.8659C144.211 56.7275 144.26 56.4037 144.26 55.8945V51.61Z" fill="#5B5B5B"/>
<path d="M149.505 54.732C149.505 53.7218 149.796 52.9316 150.378 52.3615C150.96 51.7885 151.711 51.5021 152.631 51.5021C153.233 51.5021 153.777 51.6363 154.26 51.9048C154.744 52.1732 155.112 52.5483 155.365 53.0299C155.62 53.5087 155.748 54.0525 155.748 54.6614C155.748 55.2786 155.614 55.8308 155.347 56.3179C155.08 56.805 154.701 57.1745 154.211 57.4264C153.722 57.6755 153.193 57.8 152.626 57.8C152.012 57.8 151.463 57.6616 150.979 57.3849C150.495 57.1081 150.128 56.7303 149.879 56.2515C149.63 55.7727 149.505 55.2662 149.505 54.732ZM150.396 54.7445C150.396 55.4779 150.606 56.0564 151.028 56.4798C151.452 56.9005 151.984 57.1109 152.622 57.1109C153.272 57.1109 153.806 56.8978 154.225 56.4715C154.646 56.0453 154.857 55.4405 154.857 54.6573C154.857 54.1619 154.767 53.7301 154.585 53.362C154.407 52.9911 154.145 52.7047 153.797 52.5026C153.453 52.2978 153.066 52.1954 152.635 52.1954C152.024 52.1954 151.497 52.3919 151.055 52.7849C150.615 53.1752 150.396 53.8283 150.396 54.7445Z" fill="#5B5B5B"/>
<path d="M156.838 57.6962V51.61H158.139L159.684 55.9194C159.826 56.3207 159.93 56.621 159.995 56.8203C160.07 56.5988 160.185 56.2736 160.343 55.8446L161.906 51.61H163.068V57.6962H162.235V52.6022L160.338 57.6962H159.559L157.671 52.5151V57.6962H156.838Z" fill="#5B5B5B"/>
<path d="M163.745 57.6962L166.251 51.61H167.182L169.854 57.6962H168.87L168.108 55.8529H165.379L164.662 57.6962H163.745ZM165.628 55.197H167.841L167.16 53.5114C166.952 52.9994 166.798 52.5787 166.697 52.2494C166.614 52.6396 166.496 53.0271 166.345 53.4118L165.628 55.197Z" fill="#5B5B5B"/>
<path d="M64.1881 18.8059H68.3957V19.5954H65.0491V25.4963H64.1881V18.8059Z" fill="#5B5B5B"/>
<path d="M69.1014 25.4963V18.8059H71.5559C71.9879 18.8059 72.3178 18.8272 72.5457 18.8698C72.8653 18.9245 73.133 19.0295 73.349 19.1847C73.5651 19.3368 73.7382 19.5513 73.8683 19.8282C74.0015 20.105 74.0681 20.4093 74.0681 20.7409C74.0681 21.3098 73.892 21.7921 73.5399 22.1876C73.1878 22.5801 72.5516 22.7763 71.6314 22.7763H69.9625V25.4963H69.1014ZM69.9625 21.9868H71.6447C72.201 21.9868 72.596 21.8803 72.8297 21.6673C73.0635 21.4544 73.1804 21.1547 73.1804 20.7683C73.1804 20.4884 73.1109 20.2495 72.9718 20.0518C72.8357 19.851 72.6552 19.7186 72.4303 19.6547C72.2853 19.6152 72.0175 19.5954 71.6269 19.5954H69.9625V21.9868Z" fill="#5B5B5B"/>
<path d="M74.3033 18.8059H75.1733L77.2948 22.9041L79.1501 18.8059H80.0067L77.5656 24.0085C77.2608 24.6596 77.0108 25.0856 76.8155 25.2864C76.6202 25.4872 76.3406 25.5876 75.9766 25.5876C75.7547 25.5876 75.4825 25.5343 75.1599 25.4279V24.6703C75.3907 24.8072 75.6349 24.8756 75.8923 24.8756C76.1024 24.8756 76.2829 24.8072 76.4338 24.6703C76.5876 24.5303 76.7563 24.2139 76.9398 23.721L74.3033 18.8059Z" fill="#5B5B5B"/>
<path d="M80.748 18.8059H85.8655V25.4963H85V19.5954H81.609V25.4963H80.748V18.8059Z" fill="#5B5B5B"/>
<path d="M87.2814 18.8059H92.3989V25.4963H91.5334V19.5954H88.1424V25.4963H87.2814V18.8059Z" fill="#5B5B5B"/>
<path d="M93.0913 25.4963L95.5901 18.8059H96.5178L99.1808 25.4963H98.1999L97.441 23.47H94.7202L94.0056 25.4963H93.0913ZM94.9688 22.7489H97.1747L96.4956 20.8961C96.2885 20.3332 96.1346 19.8708 96.034 19.5087C95.9511 19.9377 95.8343 20.3636 95.6833 20.7865L94.9688 22.7489Z" fill="#5B5B5B"/>
<path d="M102.412 18.8059H103.273V21.7358C103.667 21.7358 103.943 21.6582 104.103 21.503C104.263 21.3448 104.467 20.9676 104.716 20.3712C104.896 19.9331 105.044 19.6243 105.159 19.4448C105.278 19.2623 105.445 19.1101 105.661 18.9884C105.877 18.8637 106.115 18.8013 106.376 18.8013C106.707 18.8013 106.882 18.8044 106.899 18.8104V19.5771C106.87 19.5771 106.812 19.5756 106.726 19.5726C106.632 19.5695 106.574 19.568 106.553 19.568C106.278 19.568 106.074 19.6365 105.941 19.7734C105.805 19.9103 105.649 20.2024 105.475 20.6496C105.256 21.2155 105.071 21.573 104.92 21.7221C104.769 21.8681 104.588 21.9853 104.378 22.0735C104.798 22.1922 105.213 22.5907 105.621 23.2692L106.961 25.4963H105.892L104.804 23.6799C104.506 23.1779 104.255 22.8341 104.054 22.6485C103.853 22.4599 103.593 22.3656 103.273 22.3656V25.4963H102.412V18.8059Z" fill="#5B5B5B"/>
<path d="M107.33 22.2378C107.33 21.1273 107.62 20.2587 108.2 19.6319C108.78 19.0021 109.528 18.6872 110.446 18.6872C111.046 18.6872 111.588 18.8348 112.07 19.1299C112.552 19.425 112.919 19.8373 113.171 20.3667C113.425 20.893 113.553 21.4909 113.553 22.1602C113.553 22.8387 113.419 23.4457 113.153 23.9812C112.887 24.5166 112.51 24.9228 112.021 25.1997C111.533 25.4735 111.006 25.6104 110.441 25.6104C109.829 25.6104 109.281 25.4583 108.799 25.154C108.317 24.8498 107.951 24.4345 107.703 23.9081C107.454 23.3818 107.33 22.825 107.33 22.2378ZM108.218 22.2515C108.218 23.0578 108.428 23.6936 108.848 24.1591C109.271 24.6216 109.801 24.8528 110.437 24.8528C111.085 24.8528 111.617 24.6186 112.035 24.15C112.455 23.6815 112.665 23.0167 112.665 22.1557C112.665 21.6111 112.575 21.1364 112.394 20.7318C112.217 20.3241 111.955 20.0092 111.609 19.7871C111.265 19.5619 110.879 19.4494 110.45 19.4494C109.841 19.4494 109.315 19.6654 108.874 20.0974C108.437 20.5264 108.218 21.2444 108.218 22.2515Z" fill="#5B5B5B"/>
<path d="M114.64 25.4963V18.8059H115.936L117.476 23.543C117.618 23.9842 117.722 24.3143 117.787 24.5334C117.861 24.29 117.976 23.9325 118.133 23.4609L119.691 18.8059H120.849V25.4963H120.019V19.8966L118.129 25.4963H117.352L115.47 19.8008V25.4963H114.64Z" fill="#5B5B5B"/>
<path d="M122.247 18.8059H127.365V25.4963H126.5V19.5954H123.109V25.4963H122.247V18.8059Z" fill="#5B5B5B"/>
<path d="M128.057 25.4963L130.556 18.8059H131.484L134.147 25.4963H133.166L132.407 23.47H129.686L128.972 25.4963H128.057ZM129.935 22.7489H132.141L131.462 20.8961C131.255 20.3332 131.101 19.8708 131 19.5087C130.917 19.9377 130.8 20.3636 130.649 20.7865L129.935 22.7489Z" fill="#5B5B5B"/>
<path d="M134.862 25.4963V18.8059H135.723V21.5532H139.105V18.8059H139.966V25.4963H139.105V22.3428H135.723V25.4963H134.862Z" fill="#5B5B5B"/>
<path d="M141.417 18.8059H142.198V24.1044L145.66 18.8059H146.526V25.4963H145.745V20.2115L142.278 25.4963H141.417V18.8059Z" fill="#5B5B5B"/>
<path d="M147.951 18.8059H148.732V24.1044L152.194 18.8059H153.059V25.4963H152.278V20.2115L148.812 25.4963H147.951V18.8059ZM151.186 17.2131H151.732C151.688 17.5934 151.552 17.8855 151.324 18.0894C151.099 18.2932 150.799 18.3951 150.423 18.3951C150.044 18.3951 149.741 18.2947 149.513 18.0939C149.288 17.8901 149.153 17.5965 149.109 17.2131H149.655C149.696 17.42 149.778 17.5752 149.899 17.6786C150.023 17.779 150.189 17.8292 150.396 17.8292C150.636 17.8292 150.816 17.7806 150.938 17.6832C151.062 17.5828 151.145 17.4261 151.186 17.2131Z" fill="#5B5B5B"/>
<defs>
<linearGradient id="paint0_linear" x1="23.0351" y1="22.6465" x2="44.067" y2="56.1135" gradientUnits="userSpaceOnUse">
<stop stop-color="#08565B"/>
<stop offset="0.141176" stop-color="#007479"/>
<stop offset="0.368627" stop-color="#68BAB6"/>
<stop offset="0.611765" stop-color="#68BAB6"/>
<stop offset="0.74902" stop-color="#007479"/>
<stop offset="1" stop-color="#08565B"/>
</linearGradient>
</defs>
</svg>
