<svg width="110" height="110" viewBox="0 0 110 110" fill="none" xmlns="http://www.w3.org/2000/svg">
<circle cx="55" cy="55" r="55" fill="#5B6FA3"/>
<path d="M31.2377 23.7383C31.2377 21.8191 32.7802 20.2632 34.683 20.2632H64.5428L80.6211 35.9013V86.2907C80.6211 88.2099 79.0786 89.7658 77.1758 89.7658H34.683C32.7802 89.7658 31.2377 88.2099 31.2377 86.2907V23.7383Z" fill="#EAEAEA"/>
<path d="M64.1596 36.7243V20.2632L80.6208 36.7243H64.1596Z" fill="#C4C4C4"/>
<path d="M20.2637 53.1851H73.3051V78.7913H20.2637V53.1851Z" fill="#ED5547"/>
<path d="M33.0667 69.6463V60.5012H36.2234C37.4197 60.5012 38.1994 60.547 38.5627 60.6385C39.121 60.7757 39.5884 61.0751 39.965 61.5367C40.3416 61.9942 40.5299 62.5868 40.5299 63.3146C40.5299 63.876 40.4213 64.3481 40.2042 64.7307C39.9871 65.1133 39.7102 65.4148 39.3735 65.6352C39.0412 65.8514 38.7023 65.9949 38.3567 66.0656C37.8871 66.153 37.207 66.1966 36.3165 66.1966H35.0338V69.6463H33.0667ZM35.0338 62.0483V64.6433H36.1104C36.8858 64.6433 37.4042 64.5955 37.6656 64.4999C37.927 64.4042 38.1308 64.2545 38.277 64.0507C38.4276 63.8469 38.5029 63.6099 38.5029 63.3396C38.5029 63.0069 38.3988 62.7324 38.1906 62.5161C37.9823 62.2999 37.7187 62.1647 37.3997 62.1107C37.1649 62.0691 36.6931 62.0483 35.9842 62.0483H35.0338Z" fill="white"/>
<path d="M42.1382 60.5012H45.7335C46.5443 60.5012 47.1624 60.5594 47.5877 60.6759C48.1593 60.8339 48.6488 61.1146 49.0564 61.518C49.464 61.9214 49.7742 62.4163 49.9868 63.0027C50.1995 63.5849 50.3058 64.3044 50.3058 65.1611C50.3058 65.9138 50.2062 66.5626 50.0068 67.1074C49.7631 67.7728 49.4153 68.3113 48.9634 68.7231C48.6222 69.035 48.1615 69.2783 47.5811 69.4529C47.1469 69.5818 46.5665 69.6463 45.8399 69.6463H42.1382V60.5012ZM44.1053 62.0483V68.1055H45.574C46.1234 68.1055 46.52 68.0764 46.7636 68.0182C47.0826 67.9433 47.3463 67.8165 47.5545 67.6376C47.7672 67.4588 47.9399 67.1656 48.0729 66.7581C48.2058 66.3463 48.2722 65.787 48.2722 65.08C48.2722 64.373 48.2058 63.8303 48.0729 63.4519C47.9399 63.0734 47.7539 62.7781 47.5146 62.566C47.2754 62.3539 46.9719 62.2105 46.6041 62.1356C46.3294 62.0774 45.7911 62.0483 44.9892 62.0483H44.1053Z" fill="white"/>
<path d="M51.9939 69.6463V60.5012H58.6729V62.0483H53.961V64.2129H58.0283V65.76H53.961V69.6463H51.9939Z" fill="white"/>
</svg>
