<svg width="16" height="12" viewBox="0 0 16 12" fill="none" xmlns="http://www.w3.org/2000/svg">
<path fill-rule="evenodd" clip-rule="evenodd" d="M6.71 10.2919C6.89764 10.4796 7.00306 10.7341 7.00306 10.9994C7.00306 11.2648 6.89764 11.5193 6.71 11.7069C6.52236 11.8946 6.26786 12 6.0025 12C5.73714 12 5.48264 11.8946 5.295 11.7069L0.497 6.90794C0.309528 6.72042 0.204213 6.46611 0.204213 6.20094C0.204213 5.93578 0.309528 5.68147 0.497 5.49394L5.296 0.695944C5.48364 0.508436 5.73808 0.403149 6.00335 0.403242C6.26862 0.403336 6.52299 0.508804 6.7105 0.696445C6.89801 0.884085 7.0033 1.13853 7.0032 1.4038C7.00311 1.66907 6.89764 1.92344 6.71 2.11094L5.297 3.52294C4.76513 4.05421 4.17507 4.52384 3.538 4.92294L2.791 5.39294L2.838 5.43894L3.797 5.30194C4.26537 5.2352 4.7379 5.20179 5.211 5.20194L15 5.20194C15.2652 5.20194 15.5196 5.3073 15.7071 5.49484C15.8946 5.68237 16 5.93673 16 6.20194C16 6.46716 15.8946 6.72151 15.7071 6.90905C15.5196 7.09659 15.2652 7.20194 15 7.20194L5.21 7.20194C4.73687 7.20177 4.26435 7.16802 3.796 7.10094L2.836 6.96394L2.79 7.01094L3.54 7.48094C4.17602 7.87985 4.76507 8.34914 5.296 8.87994L6.71 10.2919Z" fill="white"/>
</svg>
