<svg width="20" height="20" viewBox="0 0 20 20" fill="none" xmlns="http://www.w3.org/2000/svg">
<path d="M19.5757 15.4264L16.8804 12.7436C16.2814 12.1474 15.3829 12.1474 14.784 12.7436L12.3881 15.1283C9.19358 13.5385 6.49822 10.8556 4.90097 7.67595L7.29684 5.29119C7.89581 4.695 7.89581 3.80071 7.29684 3.20452L4.50165 0.521666C3.90268 -0.173889 3.00423 -0.173889 2.40526 0.521666L2.00595 0.919126C0.608353 2.31024 -0.0904448 4.19817 0.00938341 6.08611C0.00938341 6.08611 0.00938341 6.3842 0.109212 6.88103C0.20904 7.17912 0.20904 7.57658 0.308868 7.87468C0.808009 9.46452 2.00595 12.1474 5.00079 15.029C8.09547 18.1093 10.691 19.2023 12.3881 19.6991H12.4879C12.6876 19.7985 12.8872 19.7985 12.9871 19.7985H13.0869C13.6859 19.8978 13.9853 19.8978 13.9853 19.8978C15.8821 19.9972 17.7788 19.3017 19.1764 17.9105L19.5757 17.5131C20.0749 16.9169 20.0749 16.0226 19.5757 15.4264Z" fill="white"/>
</svg>
