<svg width="44" height="44" viewBox="0 0 44 44" fill="none" xmlns="http://www.w3.org/2000/svg">
<path d="M34.4667 0H9.53333C4.26822 0 0 4.26822 0 9.53333V34.4667C0 39.7318 4.26822 44 9.53333 44H34.4667C39.7318 44 44 39.7318 44 34.4667V9.53333C44 4.26822 39.7318 0 34.4667 0Z" fill="url(#paint0_radial)"/>
<path fill-rule="evenodd" clip-rule="evenodd" d="M32.5371 13.3787C32.5371 14.4375 31.68 15.3198 30.596 15.3198C29.512 15.3198 28.655 14.4628 28.655 13.3787C28.655 12.2948 29.512 11.4378 30.596 11.4378C31.68 11.4629 32.5371 12.32 32.5371 13.3787ZM22 27.3694C19.0254 27.3694 16.6306 24.9494 16.6306 22C16.6306 19.0506 19.0254 16.6306 22 16.6306C24.9745 16.6306 27.3694 19.0255 27.3694 22C27.3694 24.9746 24.9745 27.3694 22 27.3694ZM22 13.7065C17.412 13.7065 13.7064 17.4121 13.7064 22C13.7064 26.588 17.412 30.2936 22 30.2936C26.5879 30.2936 30.2935 26.588 30.2935 22C30.2935 17.4121 26.5879 13.7065 22 13.7065ZM22 8.76564C26.3106 8.76564 26.8147 8.79087 28.5289 8.86647C30.0919 8.94208 30.9489 9.1942 31.5288 9.42109C32.285 9.72359 32.8144 10.0512 33.3941 10.6311C33.9488 11.1856 34.3016 11.7403 34.6041 12.4965C34.831 13.0763 35.0831 13.9081 35.1587 15.4963C35.2344 17.1853 35.2595 17.7146 35.2595 22.0253C35.2595 26.3359 35.2344 26.84 35.1587 28.5542C35.0831 30.1171 34.831 30.9742 34.6041 31.554C34.3016 32.3103 33.9739 32.8396 33.3941 33.4194C32.8395 33.974 32.285 34.3269 31.5288 34.6294C30.9489 34.8562 30.1171 35.1084 28.5289 35.184C26.84 35.2596 26.3106 35.2848 22 35.2848C17.6894 35.2848 17.1852 35.2596 15.471 35.184C13.9081 35.1084 13.051 34.8562 12.4713 34.6294C11.715 34.3269 11.1856 33.9992 10.6058 33.4194C10.0512 32.8648 9.6983 32.3103 9.3958 31.554C9.16891 30.9742 8.91687 30.1423 8.84126 28.5542C8.76558 26.8653 8.74035 26.3359 8.74035 22.0253C8.74035 17.7146 8.76558 17.2105 8.84126 15.4963C8.91687 13.9334 9.16891 13.0763 9.3958 12.4965C9.6983 11.7403 10.026 11.2109 10.6058 10.6311C11.1604 10.0765 11.715 9.72359 12.4713 9.42109C13.051 9.1942 13.8829 8.94208 15.471 8.86647C17.1852 8.79087 17.6894 8.76564 22 8.76564ZM22 5.8667C17.6137 5.8667 17.0591 5.8919 15.345 5.96753C13.6308 6.04316 12.446 6.32045 11.4377 6.72378C10.3789 7.12712 9.47141 7.6817 8.58914 8.5892C7.70686 9.4967 7.12705 10.379 6.72372 11.4378C6.32039 12.4713 6.0431 13.6309 5.96747 15.345C5.89184 17.0592 5.86664 17.6137 5.86664 22C5.86664 26.3863 5.89184 26.9409 5.96747 28.655C6.0431 30.3692 6.32039 31.554 6.72372 32.5623C7.12705 33.6211 7.68164 34.5286 8.58914 35.4109C9.49664 36.2931 10.3789 36.8478 11.4377 37.2762C12.4713 37.6796 13.6308 37.9569 15.345 38.0325C17.0591 38.1081 17.6137 38.1334 22 38.1334C26.3863 38.1334 26.9408 38.1081 28.655 38.0325C30.3691 37.9569 31.5539 37.6796 32.5622 37.2762C33.621 36.8729 34.5285 36.3184 35.4108 35.4109C36.3183 34.5034 36.8477 33.6211 37.2762 32.5623C37.6795 31.5288 37.9569 30.3692 38.0325 28.655C38.1081 26.9409 38.1333 26.3863 38.1333 22C38.1333 17.6137 38.1081 17.0592 38.0325 15.345C37.9569 13.6309 37.6795 12.4461 37.2762 11.4378C36.8729 10.379 36.3183 9.47147 35.4108 8.5892C34.5033 7.6817 33.621 7.15233 32.5622 6.72378C31.5288 6.32045 30.3691 6.04316 28.655 5.96753C26.9408 5.8919 26.3863 5.8667 22 5.8667Z" fill="white"/>
<defs>
<radialGradient id="paint0_radial" cx="0" cy="0" r="1" gradientUnits="userSpaceOnUse" gradientTransform="translate(6.56944 44.1528) scale(56.221)">
<stop stop-color="#FFB140"/>
<stop offset="0.2559" stop-color="#FF5445"/>
<stop offset="0.599" stop-color="#FC2B82"/>
<stop offset="1" stop-color="#8E40B7"/>
</radialGradient>
</defs>
</svg>
