<svg width="18" height="14" viewBox="0 0 18 14" fill="none" xmlns="http://www.w3.org/2000/svg">
<path d="M1 0H17C17.5523 0 18 0.447715 18 1V3.48376V12.935C18 13.4873 17.5523 13.935 17 13.935H1C0.447716 13.935 0 13.4873 0 12.935V3.48376V0.999999C0 0.447714 0.447715 0 1 0Z" fill="white"/>
<path d="M18 4.97655L9 8.95799L0 4.97655V1.99512C0 1.44283 0.447716 0.995117 1 0.995117H17C17.5523 0.995117 18 1.44283 18 1.99512V4.97655Z" fill="#94A2C4"/>
<path d="M18 3.98144L9 7.96288L0 3.98144V1C0 0.447715 0.447716 0 1 0H17C17.5523 0 18 0.447715 18 1V3.98144Z" fill="white"/>
</svg>
