<svg width="30" height="30" viewBox="0 0 30 30" fill="none" xmlns="http://www.w3.org/2000/svg">
<path d="M15 30C23.2843 30 30 23.2843 30 15C30 6.71573 23.2843 0 15 0C6.71573 0 0 6.71573 0 15C0 23.2843 6.71573 30 15 30Z" fill="#6F3FAA"/>
<path d="M22.9354 10.5423L22.9305 10.5225C22.5297 8.90222 20.7228 7.16362 19.0634 6.80192L19.0447 6.79806C16.3608 6.28606 13.6394 6.28606 10.956 6.79806L10.9367 6.80192C9.27794 7.16362 7.47097 8.90233 7.06966 10.5225L7.06521 10.5423C6.56974 12.805 6.56974 15.0998 7.06521 17.3625L7.06966 17.3823C7.45392 18.9334 9.12624 20.5922 10.7237 21.0483V22.857C10.7237 23.5117 11.5214 23.8332 11.9751 23.3608L13.8076 21.4559C14.2051 21.4781 14.6028 21.4906 15.0003 21.4906C16.3513 21.4906 17.703 21.3628 19.0446 21.1068L19.0633 21.103C20.7227 20.7413 22.5296 19.0026 22.9304 17.3824L22.9353 17.3626C23.4308 15.0998 23.4308 12.8051 22.9354 10.5423ZM21.4851 17.0344C21.2175 18.0915 19.8456 19.4057 18.7555 19.6485C17.3285 19.9199 15.8901 20.0359 14.4531 19.9961C14.4245 19.9952 14.397 20.0064 14.3772 20.0269C14.1732 20.2362 13.0392 21.4004 13.0392 21.4004L11.6161 22.8611C11.512 22.9696 11.3292 22.8957 11.3292 22.746V19.7497C11.3292 19.7002 11.2939 19.6582 11.2452 19.6486C11.2449 19.6485 11.2447 19.6485 11.2444 19.6484C10.1543 19.4056 8.78288 18.0915 8.51481 17.0344C8.06886 14.9891 8.06886 12.9157 8.51481 10.8704C8.78288 9.81335 10.1543 8.49921 11.2444 8.2564C13.7367 7.78237 16.2638 7.78237 18.7556 8.2564C19.8462 8.49921 21.2176 9.81335 21.4852 10.8704C21.9316 12.9158 21.9316 14.9892 21.4851 17.0344Z" fill="white"/>
<path d="M17.3717 18.4176C17.2041 18.3667 17.0444 18.3325 16.896 18.2711C15.3591 17.6334 13.9446 16.8107 12.8242 15.5497C12.1871 14.8327 11.6884 14.0231 11.2669 13.1663C11.0669 12.76 10.8985 12.3379 10.7267 11.9183C10.5702 11.5358 10.8008 11.1407 11.0436 10.8524C11.2715 10.5819 11.5648 10.3749 11.8823 10.2223C12.1302 10.1032 12.3746 10.1719 12.5557 10.3819C12.947 10.8362 13.3065 11.3136 13.5975 11.8401C13.7765 12.1639 13.7274 12.5598 13.403 12.7802C13.3241 12.8337 13.2523 12.8967 13.1788 12.9571C13.1144 13.0102 13.0538 13.0637 13.0096 13.1355C12.9289 13.2668 12.9251 13.4218 12.977 13.5646C13.377 14.6638 14.0512 15.5187 15.1578 15.9792C15.3349 16.0529 15.5126 16.1386 15.7167 16.1149C16.0583 16.075 16.1689 15.7002 16.4083 15.5044C16.6423 15.3131 16.9413 15.3106 17.1933 15.4701C17.4455 15.6297 17.6898 15.8009 17.9327 15.9741C18.1712 16.144 18.4086 16.3101 18.6285 16.5039C18.84 16.6901 18.9128 16.9345 18.7937 17.1872C18.5757 17.6501 18.2585 18.0352 17.8009 18.281C17.6717 18.3503 17.5174 18.3727 17.3717 18.4176C17.2041 18.3667 17.5174 18.3727 17.3717 18.4176Z" fill="white"/>
<path d="M15.0046 9.69269C17.0149 9.74906 18.6661 11.0832 19.02 13.0707C19.0803 13.4094 19.1017 13.7555 19.1285 14.0993C19.1399 14.2438 19.0579 14.3812 18.902 14.3831C18.7408 14.3851 18.6683 14.2502 18.6578 14.1057C18.6371 13.8197 18.6228 13.5323 18.5833 13.2487C18.3753 11.7511 17.1811 10.5121 15.6905 10.2463C15.4661 10.2063 15.2367 10.1958 15.0094 10.1719C14.8658 10.1569 14.6777 10.1482 14.6459 9.9696C14.6192 9.8199 14.7456 9.70072 14.8881 9.69304C14.9267 9.69076 14.9657 9.69257 15.0046 9.69269C17.015 9.74906 14.9657 9.69257 15.0046 9.69269Z" fill="white"/>
<path d="M18.0594 13.6533C18.0561 13.6784 18.0544 13.7374 18.0396 13.793C17.9863 13.9948 17.6802 14.02 17.6098 13.8164C17.5889 13.756 17.5858 13.6872 17.5857 13.6222C17.585 13.1964 17.4925 12.7711 17.2777 12.4006C17.057 12.0198 16.7197 11.6998 16.3243 11.506C16.0851 11.3889 15.8265 11.3161 15.5644 11.2728C15.4498 11.2538 15.3341 11.2424 15.2189 11.2263C15.0794 11.2069 15.0049 11.1181 15.0116 10.9806C15.0177 10.8518 15.1119 10.7591 15.2523 10.7671C15.7136 10.7932 16.1592 10.8931 16.5694 11.1102C17.4035 11.5519 17.88 12.2491 18.0191 13.1801C18.0253 13.2223 18.0354 13.2641 18.0386 13.3064C18.0465 13.4108 18.0515 13.5154 18.0594 13.6533C18.0561 13.6783 18.0515 13.5154 18.0594 13.6533Z" fill="white"/>
<path d="M16.8093 13.6044C16.6412 13.6075 16.5512 13.5143 16.5338 13.3602C16.5218 13.2528 16.5121 13.1438 16.4865 13.0391C16.436 12.8331 16.3265 12.6422 16.1531 12.5159C16.0713 12.4563 15.9786 12.4129 15.8815 12.3848C15.7582 12.3491 15.63 12.3589 15.507 12.3288C15.3733 12.296 15.2994 12.1878 15.3204 12.0624C15.3395 11.9483 15.4505 11.8592 15.5752 11.8683C16.3546 11.9246 16.9117 12.3275 16.9912 13.2451C16.9969 13.3098 17.0035 13.3782 16.9891 13.4403C16.9644 13.5461 16.8859 13.5993 16.8093 13.6044C16.6411 13.6074 16.8859 13.5993 16.8093 13.6044Z" fill="white"/>
<path d="M17.3713 18.4173C17.5169 18.3724 17.2037 18.3664 17.3713 18.4173V18.4173Z" fill="white"/>
<path d="M15.01 9.69458C15.0081 9.69458 15.0063 9.69439 15.0044 9.69439C15.0025 9.69426 15.0049 9.69439 15.01 9.69458Z" fill="white"/>
<path d="M15.0055 9.69336C15.0072 9.69336 15.0088 9.69354 15.0105 9.69354C15.1221 9.69752 16.9366 9.7475 15.0055 9.69336Z" fill="white"/>
<path d="M18.0591 13.6533C18.0511 13.5153 18.0557 13.6783 18.0591 13.6533V13.6533Z" fill="white"/>
<path d="M16.8089 13.6048C16.8115 13.6047 16.814 13.6033 16.8166 13.603C16.8095 13.603 16.7986 13.6032 16.7874 13.6036C16.7946 13.6038 16.8013 13.6049 16.8089 13.6048Z" fill="white"/>
<path d="M16.8087 13.6052C16.8011 13.6054 16.7945 13.6042 16.7872 13.604C16.7508 13.605 16.7132 13.6069 16.8087 13.6052Z" fill="white"/>
<path d="M16.8165 13.603C16.8138 13.6033 16.8113 13.6047 16.8088 13.6048C16.8285 13.6035 16.8268 13.603 16.8165 13.603Z" fill="white"/>
</svg>
