<svg width="44" height="44" viewBox="0 0 44 44" fill="none" xmlns="http://www.w3.org/2000/svg">
<path d="M34.4667 0H9.53333C4.26822 0 0 4.26822 0 9.53333V34.4667C0 39.7318 4.26822 44 9.53333 44H34.4667C39.7318 44 44 39.7318 44 34.4667V9.53333C44 4.26822 39.7318 0 34.4667 0Z" fill="#3E61A3"/>
<path fill-rule="evenodd" clip-rule="evenodd" d="M21.2216 31.4718H23.282C23.282 31.4718 23.8907 31.4263 24.2185 31.0626C24.4995 30.7443 24.4995 30.1987 24.4995 30.1987C24.4995 30.1987 24.4527 27.5162 25.7639 27.107C27.0282 26.6978 28.6671 29.6986 30.3998 30.8352C31.711 31.6991 32.6943 31.5172 32.6943 31.5172L37.2834 31.4718C37.2834 31.4718 39.6717 31.3354 38.5478 29.4712C38.4541 29.3348 37.8922 28.1072 35.1294 25.6066C32.2261 23.0149 32.6475 23.4241 36.1127 18.9229C38.22 16.1948 39.0629 14.5126 38.8288 13.7851C38.5946 13.1031 37.0025 13.285 37.0025 13.285L31.8046 13.3759C31.8046 13.3759 31.43 13.3304 31.149 13.5123C30.8681 13.6942 30.6807 14.0579 30.6807 14.0579C30.6807 14.0579 29.8378 16.1948 28.7608 17.9681C26.4662 21.7873 25.5297 21.9692 25.155 21.7418C24.2654 21.1962 24.4995 19.514 24.4995 18.3318C24.4995 14.649 25.0614 13.1031 23.3756 12.6939C22.8137 12.5575 22.3922 12.4666 20.9406 12.4666C19.0675 12.4666 17.5221 12.4666 16.6325 12.8758C16.0237 13.1486 15.6022 13.7851 15.8832 13.8306C16.211 13.876 17.0071 14.0124 17.4285 14.558C17.9436 15.24 17.9436 16.8314 17.9436 16.8314C17.9436 16.8314 18.2714 21.1962 17.2412 21.6964C16.5388 22.0601 15.6022 21.3326 13.5418 17.8772C12.4648 16.1039 11.6688 14.1488 11.6688 14.1488C11.6688 14.1488 11.5282 13.7851 11.2473 13.6032C10.9195 13.3759 10.4512 13.285 10.4512 13.285L5.53429 13.3304C5.53429 13.3304 4.78506 13.3304 4.50409 13.6487C4.26995 13.9215 4.50409 14.5126 4.50409 14.5126C4.50409 14.5126 8.34397 23.2877 12.7457 27.698C16.6793 31.7446 21.2216 31.4718 21.2216 31.4718Z" fill="white"/>
</svg>
