<svg width="30" height="30" viewBox="0 0 30 30" fill="none" xmlns="http://www.w3.org/2000/svg">
<path d="M25.6497 4.3112C22.7997 1.55623 19.0498 0 15.0561 0C3.59371 0 -3.60371 12.4186 2.11997 22.2972L0 29.9996L7.91865 27.9347C11.3686 29.7984 14.1948 29.6334 15.0636 29.7434C28.3546 29.7434 34.9708 13.6636 25.6309 4.35995L25.6497 4.3112Z" fill="white"/>
<path d="M15.0831 27.1894L15.0756 27.1882H15.0556C11.0781 27.1882 8.53692 25.3045 8.28692 25.1957L3.59948 26.4145L4.85571 21.8583L4.55696 21.3895C3.31948 19.4195 2.66199 17.1508 2.66199 14.8146C2.66199 3.82348 16.0931 -1.6727 23.8655 6.09595C31.6191 13.7834 26.1754 27.1894 15.0831 27.1894Z" fill="url(#paint0_linear)"/>
<path d="M21.8827 17.886L21.8715 17.9798C21.4952 17.7923 19.6628 16.896 19.3215 16.7723C18.5553 16.4886 18.7715 16.7273 17.3003 18.4123C17.0815 18.656 16.864 18.6748 16.4928 18.506C16.1178 18.3185 14.9141 17.9248 13.4891 16.6498C12.3791 15.6561 11.6341 14.4373 11.4141 14.0623C11.0479 13.4298 11.8141 13.3398 12.5116 12.0199C12.6366 11.7574 12.5729 11.5511 12.4804 11.3649C12.3866 11.1774 11.6404 9.33989 11.3279 8.6074C11.0279 7.87741 10.7191 7.96991 10.4879 7.96991C9.76789 7.90741 9.24164 7.91741 8.7779 8.3999C6.76042 10.6174 7.26917 12.9048 8.9954 15.3373C12.3879 19.7773 14.1953 20.5948 17.5003 21.7297C18.3928 22.0135 19.2065 21.9735 19.8503 21.881C20.5678 21.7672 22.059 20.9797 22.3702 20.0985C22.689 19.2173 22.689 18.486 22.5952 18.3173C22.5027 18.1485 22.2577 18.0548 21.8827 17.886Z" fill="white"/>
<defs>
<linearGradient id="paint0_linear" x1="2.66199" y1="1.4344" x2="25.7067" y2="27.3151" gradientUnits="userSpaceOnUse">
<stop stop-color="#29B04F"/>
<stop offset="1" stop-color="#089930"/>
</linearGradient>
</defs>
</svg>
