<svg width="103" height="24" viewBox="0 0 103 24" fill="none" xmlns="http://www.w3.org/2000/svg">
<path d="M21.1815 0.466797C21.3231 0.669467 21.5213 0.553655 21.6629 0.553655C23.5319 0.640514 25.4008 0.698419 27.2414 0.930042C29.7617 1.24852 31.0077 2.46454 31.4041 5.04134C31.8856 8.37088 31.9139 11.7295 31.7439 15.088C31.6873 16.4198 31.574 17.7516 31.3192 19.0545C30.9228 21.197 29.6201 22.442 27.5246 22.7026C24.0416 23.1368 20.5585 23.1658 17.0471 23.1948C13.4791 23.2237 9.88284 23.1368 6.31481 22.9053C5.4936 22.8473 4.70071 22.7605 3.90782 22.6157C2.18045 22.2972 0.962793 21.1101 0.594668 19.344C0.283175 17.9253 0.198223 16.5066 0.11327 15.088C0.11327 14.9432 0.198223 14.7405 0 14.6247C0 12.7718 0 10.8898 0 9.03682C0.169905 8.92103 0.0849523 8.7473 0.11327 8.57358C0.198223 7.32861 0.283175 6.05469 0.509715 4.80972C0.906158 2.4935 2.18045 1.21957 4.47417 0.930042C6.28649 0.698419 8.12709 0.640514 9.96776 0.553655C10.1377 0.553655 10.3359 0.640514 10.4492 0.466797C14.0172 0.466797 17.5852 0.466797 21.1815 0.466797ZM12.7995 6.98118C12.7995 10.2528 12.7995 13.4087 12.7995 16.6804C15.5746 15.059 18.2648 13.4666 21.0399 11.8453C18.2648 10.195 15.5463 8.60254 12.7995 6.98118Z" fill="#C52B26"/>
<path d="M102.178 18.3469C101.98 18.4916 102.093 18.7232 102.065 18.897C101.782 20.4315 100.904 21.329 99.4312 21.6475C98.4969 21.8502 97.5619 21.8502 96.6277 21.5895C95.2116 21.1842 94.5318 20.113 94.2209 18.7522C94.1072 18.26 93.9943 17.7389 93.9657 17.2467C93.9092 14.8725 93.6826 12.4984 94.1923 10.1532C94.6455 8.0976 95.7785 7.17107 97.8736 7.08421C98.3268 7.05526 98.78 7.05526 99.2332 7.14212C100.847 7.43165 101.668 8.35815 102.008 10.0664C102.065 10.3849 102.036 10.7033 102.206 10.9929C102.206 12.5274 102.206 14.0619 102.206 15.5964C100.536 15.5964 98.8651 15.5674 97.1938 15.5674C97.0523 15.5674 96.9393 15.5964 96.9393 15.799C96.9672 16.8413 96.9107 17.8547 97.1373 18.868C97.2503 19.4181 97.6184 19.6787 98.1567 19.7077C98.6949 19.7077 99.0345 19.476 99.2046 18.9259C99.3461 18.5206 99.4026 18.0863 99.4026 17.652C99.4026 17.3914 99.4312 17.2467 99.7429 17.2756C100.451 17.3335 101.158 17.3625 101.894 17.3914C102.065 17.3914 102.121 17.5072 102.235 17.5941C102.178 17.7967 102.178 18.0863 102.178 18.3469ZM96.9107 12.0352C96.9107 12.4405 96.9107 12.9037 96.9107 13.367C96.9107 13.5697 96.9393 13.6854 97.1659 13.6854C97.7607 13.6854 98.3547 13.6854 98.978 13.6854C99.1195 13.6854 99.2332 13.6854 99.2332 13.4828C99.2046 12.3536 99.2897 11.2245 99.0631 10.1242C98.9494 9.5452 98.5813 9.28464 98.0151 9.31361C97.5341 9.31361 97.2789 9.57416 97.1373 10.1242C96.9393 10.7033 96.9672 11.3402 96.9107 12.0352Z" fill="black"/>
<path d="M86.6429 8.83397C87.2098 7.93644 87.861 7.32842 88.7952 7.12575C90.1827 6.77831 91.3722 7.38633 91.8818 8.74707C92.1935 9.55777 92.3064 10.4264 92.335 11.295C92.448 13.5822 92.533 15.8405 92.25 18.1278C92.1649 18.7937 92.0234 19.4307 91.7689 20.0387C91.3722 20.9942 90.7496 21.718 89.673 21.8048C88.5122 21.9207 87.4928 21.5443 86.7566 20.5598C86.7001 20.473 86.615 20.3862 86.53 20.2413C86.4735 20.3572 86.4449 20.444 86.417 20.5309C86.1332 21.6022 86.1618 21.6022 85.1139 21.6022C84.7458 21.6022 84.3776 21.5732 83.9816 21.6022C83.6414 21.6311 83.5563 21.4863 83.5563 21.1678C83.5563 18.1278 83.5563 15.0878 83.5563 12.0477C83.5563 8.66024 83.5563 5.27276 83.5563 1.88529C83.5563 1.42205 83.6986 1.33518 84.0946 1.36413C84.7458 1.39309 85.4256 1.42205 86.1054 1.36413C86.5864 1.33518 86.6429 1.5089 86.6429 1.9432C86.6429 4.17256 86.6429 6.43088 86.6429 8.83397ZM89.2484 14.6245C89.2484 13.8138 89.277 13.0322 89.2484 12.2215C89.2198 11.4687 89.192 10.7159 88.9368 10.021C88.7102 9.35515 88.0876 9.12349 87.4928 9.49991C86.9832 9.81832 86.7001 10.2816 86.7001 10.9475C86.7001 13.4085 86.7001 15.8695 86.7001 18.3305C86.7001 18.9385 87.011 19.3149 87.5779 19.4307C88.2005 19.5755 88.6251 19.3438 88.8803 18.7648C88.9654 18.5332 89.0504 18.3015 89.0783 18.041C89.2484 16.9118 89.2198 15.7827 89.2484 14.6245Z" fill="black"/>
<path d="M62.8278 19.8073C62.2614 20.8496 61.5818 21.5156 60.5624 21.7761C58.7501 22.2394 57.3909 21.2839 57.1359 19.4019C57.0793 18.8808 57.051 18.3886 57.051 17.8674C57.051 14.5379 57.051 11.1794 57.051 7.84981C57.051 7.47341 57.1359 7.32864 57.5324 7.35759C58.297 7.38654 59.0615 7.38654 59.8261 7.35759C60.1659 7.35759 60.2509 7.47341 60.2509 7.79188C60.2509 11.0346 60.2509 14.2773 60.2509 17.5201C60.2509 18.0122 60.2509 18.5044 60.3925 18.9966C60.5058 19.373 60.7606 19.5757 61.157 19.5757C61.9216 19.5757 62.4597 19.0256 62.4597 18.2439C62.4597 14.7695 62.4597 11.2952 62.4597 7.82084C62.4597 7.44445 62.5446 7.35759 62.9127 7.35759C63.7057 7.38654 64.4985 7.38654 65.2914 7.35759C65.5746 7.35759 65.6312 7.44445 65.6312 7.73398C65.6312 12.2506 65.6312 16.7673 65.6312 21.2839C65.6312 21.5156 65.6029 21.6603 65.3197 21.6313C64.6968 21.6024 64.0454 21.6024 63.4224 21.6313C63.1959 21.6313 63.1109 21.5444 63.1109 21.3129C62.9977 20.8786 62.9127 20.4153 62.8278 19.8073Z" fill="black"/>
<path d="M78.9407 19.8072C78.4311 20.7626 77.8363 21.3996 76.9299 21.6891C74.9763 22.3261 73.4473 21.2549 73.2206 19.1702C73.1357 18.2437 73.1357 17.3172 73.1357 16.3908C73.1357 13.5244 73.1357 10.6581 73.1357 7.82071C73.1357 7.4154 73.2489 7.32854 73.6167 7.32854C74.3816 7.35749 75.1465 7.35749 75.9106 7.32854C76.2509 7.32854 76.3352 7.4154 76.3352 7.76283C76.3352 11.0345 76.3352 14.3062 76.3352 17.5779C76.3352 18.0121 76.3073 18.4464 76.4489 18.8517C76.5904 19.3729 76.8456 19.5466 77.3831 19.5177C78.0629 19.4597 78.544 18.9386 78.544 18.2437C78.544 14.7694 78.544 11.2951 78.544 7.82071C78.544 7.44435 78.6012 7.29959 79.0258 7.32854C79.8185 7.35749 80.5834 7.35749 81.3761 7.32854C81.6592 7.32854 81.7721 7.38645 81.7721 7.70493C81.7721 12.2216 81.7721 16.7092 81.7721 21.2259C81.7721 21.5154 81.7157 21.6312 81.4047 21.6312C80.81 21.6022 80.2153 21.6022 79.5919 21.6312C79.3653 21.6312 79.2524 21.6022 79.2238 21.3127C79.1387 20.8495 79.0537 20.4152 78.9407 19.8072Z" fill="black"/>
<path d="M55.4371 14.8272C55.4088 15.8115 55.4371 17.1144 55.1822 18.4173C54.7008 20.8204 53.4548 21.8627 51.0762 21.8337C50.5664 21.8337 50.0851 21.7758 49.5753 21.66C48.0462 21.2836 47.3099 20.1834 46.9701 18.7068C46.8285 18.0699 46.7436 17.4329 46.7436 16.7959C46.6869 14.6824 46.5736 12.5689 46.9701 10.4842C47.5081 7.73371 49.2638 6.86513 51.7841 7.09674C53.7663 7.29941 54.8707 8.31274 55.2672 11.0633C55.4371 12.2214 55.4654 13.3505 55.4371 14.8272ZM49.9435 14.4507C49.9435 15.3772 49.9151 16.2748 49.9435 17.2013C49.9718 17.8093 50.0001 18.4173 50.2266 18.9964C50.3682 19.3727 50.6514 19.6044 51.0762 19.6333C51.5009 19.6622 51.7841 19.4017 51.954 19.0253C52.0956 18.7068 52.1523 18.3594 52.1806 18.012C52.3505 15.8694 52.2655 13.7269 52.2372 11.5844C52.2372 11.0054 52.1806 10.4264 51.954 9.87621C51.7841 9.49986 51.5009 9.2682 51.0762 9.2682C50.6514 9.2682 50.3682 9.49986 50.2266 9.87621C50.1134 10.1947 50.0568 10.5132 50.0001 10.8317C49.8585 12.0477 49.9435 13.2347 49.9435 14.4507Z" fill="black"/>
<path d="M37.2289 2.05898C38.22 2.05898 39.1827 2.05898 40.1172 2.05898C40.4004 2.05898 40.3721 2.26165 40.4288 2.40641C41.0517 5.47541 41.788 8.5444 42.2977 11.6424C42.2977 11.6713 42.326 11.7002 42.3543 11.7582C42.6658 10.2237 42.9773 8.68916 43.2888 7.15467C43.6286 5.56227 43.9967 3.96986 44.3365 2.34851C44.3932 2.14584 44.4215 2.03003 44.6481 2.03003C45.5825 2.03003 46.517 2.03003 47.5364 2.03003C47.2249 3.15919 46.9418 4.23044 46.6303 5.30169C45.7525 8.51544 44.8746 11.7002 43.9967 14.9141C43.9401 15.1457 43.9401 15.3772 43.9401 15.6089C43.9401 17.4329 43.9401 19.228 43.9401 21.052C43.9401 21.4574 43.8552 21.6021 43.4304 21.5732C42.7225 21.5442 41.9862 21.5442 41.2782 21.5732C40.9101 21.6021 40.7686 21.4863 40.7969 21.081C40.8252 20.0097 40.7685 18.9384 40.8252 17.8962C40.9384 16.1301 40.5987 14.4508 40.1455 12.7715C39.1544 9.29717 38.2483 5.79389 37.2855 2.2906C37.2572 2.26165 37.2572 2.17479 37.2289 2.05898Z" fill="black"/>
<path d="M71.0116 13.8814C71.0116 16.5451 71.0116 19.2087 71.0116 21.8724C71.0116 22.2777 70.8984 22.3646 70.5303 22.3646C69.8223 22.3356 69.1427 22.3356 68.4348 22.3646C68.0383 22.3935 67.925 22.2488 67.925 21.8435C67.9534 17.3847 67.925 12.926 67.925 8.46724C67.925 7.59864 67.925 6.70111 67.925 5.83252C67.925 5.51404 67.8684 5.39823 67.5286 5.39823C66.7357 5.42719 65.9712 5.39823 65.1783 5.42719C64.8951 5.42719 64.7818 5.39823 64.7818 5.0508C64.8101 4.44279 64.8101 3.83478 64.7818 3.19782C64.7818 2.90829 64.8384 2.79248 65.15 2.79248C68.01 2.79248 70.87 2.79248 73.73 2.79248C74.0417 2.79248 74.1268 2.87934 74.0982 3.16886C74.0703 3.80583 74.0703 4.44279 74.0982 5.0508C74.0982 5.31137 74.0131 5.39823 73.7586 5.36927C73.0222 5.34032 72.2576 5.39823 71.5214 5.34032C71.0966 5.31137 70.955 5.42719 70.955 5.89043C71.0116 8.58303 71.0116 11.2467 71.0116 13.8814Z" fill="black"/>
<path d="M13.2 7.06689C15.9468 8.68822 18.6653 10.2807 21.4404 11.902C18.6653 13.5523 15.9468 15.1447 13.2 16.7661C13.2 13.5234 13.2 10.3386 13.2 7.06689Z" fill="#FEFEFE"/>
</svg>
