<svg width="16" height="12" viewBox="0 0 16 12" fill="none" xmlns="http://www.w3.org/2000/svg">
<path fill-rule="evenodd" clip-rule="evenodd" d="M9.29 1.70806C9.10236 1.52042 8.99694 1.26592 8.99694 1.00056C8.99694 0.735192 9.10236 0.480697 9.29 0.293056C9.47764 0.105415 9.73214 1.97712e-09 9.9975 0C10.2629 -1.97712e-09 10.5174 0.105415 10.705 0.293056L15.503 5.09206C15.6905 5.27958 15.7958 5.53389 15.7958 5.79906C15.7958 6.06422 15.6905 6.31853 15.503 6.50606L10.704 11.3041C10.5164 11.4916 10.2619 11.5969 9.99665 11.5968C9.73138 11.5967 9.47701 11.4912 9.2895 11.3036C9.10199 11.1159 8.9967 10.8615 8.9968 10.5962C8.99689 10.3309 9.10236 10.0766 9.29 9.88906L10.703 8.47706C11.2349 7.94579 11.8249 7.47616 12.462 7.07706L13.209 6.60706L13.162 6.56106L12.203 6.69806C11.7346 6.7648 11.2621 6.79821 10.789 6.79806H1C0.734784 6.79806 0.48043 6.6927 0.292893 6.50516C0.105357 6.31763 0 6.06327 0 5.79806C0 5.53284 0.105357 5.27849 0.292893 5.09095C0.48043 4.90341 0.734784 4.79806 1 4.79806H10.79C11.2631 4.79823 11.7357 4.83198 12.204 4.89906L13.164 5.03606L13.21 4.98906L12.46 4.51906C11.824 4.12015 11.2349 3.65086 10.704 3.12006L9.29 1.70806Z" fill="white"/>
</svg>
