<svg width="12" height="17" viewBox="0 0 12 17" fill="none" xmlns="http://www.w3.org/2000/svg">
<path fill-rule="evenodd" clip-rule="evenodd" d="M9.98823 10.1904C10.1759 10.0028 10.4304 9.89733 10.6957 9.89733C10.9611 9.89733 11.2156 10.0028 11.4032 10.1904C11.5909 10.378 11.6963 10.6325 11.6963 10.8979C11.6963 11.1633 11.5909 11.4177 11.4032 11.6054L6.60423 16.4034C6.41671 16.5909 6.1624 16.6962 5.89723 16.6962C5.63207 16.6962 5.37776 16.5909 5.19023 16.4034L0.392233 11.6044C0.204725 11.4167 0.0994377 11.1623 0.0995312 10.897C0.0996246 10.6318 0.205093 10.3774 0.392734 10.1899C0.580374 10.0024 0.834817 9.89709 1.10009 9.89719C1.36536 9.89728 1.61973 10.0028 1.80723 10.1904L3.21923 11.6034C3.7505 12.1353 4.22013 12.7253 4.61923 13.3624L5.08923 14.1094L5.13523 14.0624L4.99823 13.1034C4.93149 12.635 4.89808 12.1625 4.89823 11.6894L4.89823 1.90039C4.89823 1.63517 5.00359 1.38082 5.19113 1.19328C5.37866 1.00575 5.63302 0.900391 5.89823 0.900391C6.16345 0.900391 6.4178 1.00575 6.60534 1.19328C6.79288 1.38082 6.89823 1.63517 6.89823 1.90039L6.89823 11.6904C6.89806 12.1635 6.86431 12.636 6.79723 13.1044L6.66023 14.0644L6.70723 14.1104L7.17723 13.3604C7.57614 12.7244 8.04543 12.1353 8.57623 11.6044L9.98823 10.1904Z" fill="white"/>
</svg>
