<svg width="24" height="24" viewBox="0 0 24 24" fill="none" xmlns="http://www.w3.org/2000/svg">
<circle cx="12" cy="12" r="12" fill="#5B6FA3"/>
<circle cx="12" cy="12" r="10" fill="white"/>
<path d="M12.5629 13.8737H10.4714L10.0343 6H13L12.5629 13.8737ZM10 16.63C10 16.1786 10.1286 15.8375 10.3857 15.6064C10.6429 15.3754 11.0171 15.2599 11.5086 15.2599C11.9829 15.2599 12.3486 15.3781 12.6057 15.6145C12.8686 15.8509 13 16.1894 13 16.63C13 17.0544 12.8686 17.3902 12.6057 17.6373C12.3429 17.8791 11.9771 18 11.5086 18C11.0286 18 10.6571 17.8818 10.3943 17.6454C10.1314 17.4036 10 17.0651 10 16.63Z" fill="#FFB800"/>
</svg>
